{"glyphs":{"0":{"ha":1006,"x_min":79,"x_max":926,"o":"m 501 -17 q 196 127 313 -17 q 79 486 79 271 q 198 844 79 699 q 504 989 317 989 q 809 844 692 989 q 926 486 926 700 q 808 128 926 274 q 501 -17 689 -17 m 324 238 q 359 188 324 238 q 504 138 393 138 q 683 237 615 138 q 750 486 750 336 q 681 734 750 633 q 501 835 611 835 q 323 735 390 835 q 256 486 256 636 q 324 238 256 339 z "},"1":{"ha":550,"x_min":36,"x_max":417,"o":"m 247 0 l 247 806 l 72 757 l 36 896 l 297 979 l 417 979 l 417 0 l 247 0 z "},"2":{"ha":851,"x_min":68,"x_max":771,"o":"m 68 0 l 68 135 l 403 419 q 545 562 506 506 q 585 682 585 618 q 540 792 585 751 q 428 833 496 833 q 313 799 364 833 q 203 688 263 764 l 82 782 q 237 937 157 888 q 440 986 317 986 q 672 906 583 986 q 761 693 761 825 q 747 591 761 636 q 698 499 733 546 q 622 415 663 453 q 508 317 581 376 l 308 150 l 771 150 l 771 0 l 68 0 z "},"3":{"ha":858,"x_min":60,"x_max":772,"o":"m 432 -17 q 60 154 200 -17 l 179 265 q 435 138 288 138 q 556 178 508 138 q 603 288 603 219 q 542 398 603 358 q 379 438 482 438 l 300 438 l 272 544 l 535 824 l 114 824 l 114 972 l 757 972 l 757 844 l 486 567 q 693 481 614 549 q 772 290 772 414 q 677 69 772 156 q 432 -17 582 -17 z "},"4":{"ha":946,"x_min":50,"x_max":875,"o":"m 572 0 l 572 218 l 82 218 l 50 340 l 590 979 l 736 979 l 736 358 l 875 358 l 875 218 l 736 218 l 736 0 l 572 0 m 253 358 l 572 358 l 572 743 l 253 358 z "},"5":{"ha":864,"x_min":65,"x_max":782,"o":"m 422 -17 q 65 132 218 -17 l 171 256 q 421 139 296 139 q 561 185 508 139 q 614 310 614 232 q 558 427 614 383 q 413 471 501 471 q 233 428 325 471 l 131 496 l 158 972 l 739 972 l 739 821 l 306 821 l 290 593 q 444 621 367 621 q 688 542 593 621 q 782 313 782 463 q 683 74 782 164 q 422 -17 583 -17 z "},"6":{"ha":911,"x_min":79,"x_max":829,"o":"m 468 -17 q 199 85 300 -17 q 109 231 139 144 q 79 460 79 318 q 188 840 79 692 q 496 989 297 989 q 793 881 658 989 l 701 749 q 490 833 592 833 q 324 748 385 833 q 257 525 264 663 q 489 622 357 622 q 733 540 636 622 q 829 314 829 457 q 726 77 829 171 q 468 -17 622 -17 m 464 131 q 606 181 553 131 q 658 310 658 231 q 603 431 658 383 q 460 479 549 479 q 317 429 371 479 q 263 306 263 379 q 318 181 263 231 q 464 131 374 131 z "},"7":{"ha":846,"x_min":94,"x_max":778,"o":"m 147 0 l 583 822 l 94 822 l 94 972 l 778 972 l 778 843 l 339 0 l 147 0 z "},"8":{"ha":875,"x_min":67,"x_max":808,"o":"m 438 -14 q 172 64 276 -14 q 67 267 67 142 q 242 504 67 431 q 100 724 100 579 q 196 911 100 836 q 438 986 292 986 q 679 911 583 986 q 775 721 775 836 q 633 504 775 579 q 808 268 808 424 q 704 63 808 140 q 438 -14 600 -14 m 313 601 q 338 581 313 601 q 438 561 363 561 q 562 602 513 561 q 611 707 611 643 q 563 803 611 764 q 438 843 514 843 q 313 803 361 843 q 264 706 264 764 q 313 601 264 642 m 289 172 q 317 150 289 172 q 438 129 344 129 q 586 172 531 129 q 642 278 642 214 q 583 384 642 343 q 438 425 525 425 q 292 384 350 425 q 233 275 233 343 q 289 172 233 214 z "},"9":{"ha":911,"x_min":82,"x_max":832,"o":"m 415 -17 q 104 100 244 -17 l 197 231 q 419 139 306 139 q 588 223 525 139 q 654 444 650 307 q 426 342 568 342 q 176 426 271 342 q 82 653 82 511 q 183 893 82 797 q 444 989 285 989 q 714 886 611 989 q 832 513 832 768 q 720 129 832 275 q 415 -17 608 -17 m 307 533 q 334 509 307 533 q 451 485 361 485 q 595 536 542 485 q 649 663 649 588 q 593 791 649 740 q 446 842 538 842 q 305 790 357 842 q 253 658 253 738 q 307 533 253 582 z "}," ":{"ha":417,"x_min":0,"x_max":0,"o":""},"!":{"ha":419,"x_min":111,"x_max":308,"o":"m 164 307 l 111 924 l 111 972 l 308 972 l 308 924 l 257 307 l 164 307 m 118 0 l 118 190 l 303 190 l 303 0 l 118 0 z "},"\"":{"ha":676,"x_min":83,"x_max":611,"o":"m 388 557 l 421 972 l 611 972 l 611 965 l 475 557 l 388 557 m 83 557 l 115 972 l 306 972 l 306 965 l 171 557 l 83 557 z "},"#":{"ha":972,"x_min":54,"x_max":917,"o":"m 140 0 l 179 224 l 54 224 l 54 368 l 204 368 l 244 610 l 106 610 l 106 754 l 269 754 l 307 972 l 456 972 l 418 754 l 646 754 l 682 972 l 831 972 l 793 754 l 917 754 l 917 610 l 768 610 l 728 368 l 867 368 l 867 224 l 703 224 l 664 0 l 515 0 l 554 224 l 326 224 l 289 0 l 140 0 m 351 368 l 579 368 l 621 610 l 393 610 l 351 368 z "},"$":{"ha":892,"x_min":68,"x_max":813,"o":"m 400 -136 l 400 3 q 68 140 214 24 l 157 267 q 401 147 282 165 l 401 419 q 174 526 244 460 q 104 707 104 592 q 186 890 104 818 q 400 972 268 961 l 400 1053 l 513 1053 l 513 969 q 778 864 661 951 l 700 733 q 511 822 610 801 l 511 558 q 741 450 669 518 q 813 269 813 382 q 730 85 813 157 q 513 1 647 13 l 513 -136 l 400 -136 m 401 588 l 401 832 q 303 794 338 826 q 268 714 268 763 q 297 639 268 668 q 401 588 325 610 m 511 142 q 613 178 576 147 q 649 263 649 210 q 619 340 649 310 q 511 393 589 369 l 511 142 z "},"%":{"ha":1179,"x_min":67,"x_max":1113,"o":"m 294 486 q 131 558 194 486 q 67 735 67 631 q 131 910 67 838 q 297 983 196 983 q 461 911 397 983 q 525 735 525 839 q 460 559 525 632 q 294 486 396 486 m 165 0 l 876 972 l 1014 972 l 303 0 l 165 0 m 882 -11 q 718 61 782 -11 q 654 238 654 133 q 719 413 654 340 q 885 486 783 486 q 1049 414 985 486 q 1113 238 1113 342 q 1048 62 1113 135 q 882 -11 983 -11 m 297 593 q 373 634 344 593 q 401 735 401 675 q 371 835 401 794 q 294 876 340 876 q 219 835 247 876 q 190 735 190 794 q 221 634 190 675 q 297 593 251 593 m 885 96 q 960 137 932 96 q 989 238 989 178 q 958 338 989 297 q 882 379 928 379 q 806 338 835 379 q 778 238 778 297 q 808 137 778 178 q 885 96 839 96 z "},"&":{"ha":967,"x_min":54,"x_max":925,"o":"m 799 -19 l 669 113 q 371 -14 533 -14 q 144 63 233 -14 q 54 267 54 140 q 261 539 54 450 q 181 744 181 642 q 257 917 181 846 q 460 989 333 989 q 646 921 574 989 q 718 751 718 853 q 504 499 718 579 l 671 329 q 775 517 724 408 l 904 449 q 772 226 838 315 l 925 71 l 799 -19 m 414 590 q 529 655 492 618 q 567 744 567 692 q 535 824 567 793 q 456 854 504 854 q 372 821 404 854 q 340 735 340 788 q 414 590 340 671 m 389 128 q 572 213 483 128 l 356 433 q 226 269 226 378 q 272 168 226 208 q 389 128 318 128 z "},"'":{"ha":374,"x_min":83,"x_max":308,"o":"m 83 557 l 115 972 l 308 972 l 308 965 l 172 557 l 83 557 z "},"(":{"ha":611,"x_min":88,"x_max":546,"o":"m 472 -196 q 88 399 88 15 q 472 993 88 782 l 546 881 q 326 667 396 782 q 256 399 256 551 q 326 131 256 246 q 546 -83 396 15 l 472 -196 z "},")":{"ha":611,"x_min":67,"x_max":525,"o":"m 140 -196 l 67 -83 q 287 131 217 15 q 357 399 357 246 q 287 667 357 551 q 67 881 217 782 l 140 993 q 525 399 525 781 q 140 -196 525 17 z "},"*":{"ha":597,"x_min":81,"x_max":517,"o":"m 250 531 l 269 700 l 131 599 l 81 683 l 239 753 l 81 822 l 131 907 l 269 806 l 250 975 l 347 975 l 328 806 l 467 907 l 517 822 l 358 753 l 517 683 l 467 599 l 328 700 l 347 531 l 250 531 z "},"+":{"ha":889,"x_min":99,"x_max":790,"o":"m 365 147 l 365 413 l 99 413 l 99 565 l 365 565 l 365 831 l 524 831 l 524 565 l 790 565 l 790 413 l 524 413 l 524 147 l 365 147 z "},",":{"ha":374,"x_min":47,"x_max":279,"o":"m 65 -201 l 47 -131 q 167 -15 167 -107 q 166 -8 167 -12 q 165 0 165 -3 l 94 0 l 94 190 l 279 190 l 279 29 q 226 -138 279 -83 q 65 -201 174 -193 z "},"-":{"ha":567,"x_min":78,"x_max":489,"o":"m 78 343 l 78 508 l 489 508 l 489 343 l 78 343 z "},".":{"ha":374,"x_min":94,"x_max":279,"o":"m 94 0 l 94 190 l 279 190 l 279 0 l 94 0 z "},"/":{"ha":724,"x_min":-35,"x_max":739,"o":"m -35 -178 l 593 1108 l 739 1108 l 111 -178 l -35 -178 z "},":":{"ha":388,"x_min":101,"x_max":286,"o":"m 101 543 l 101 733 l 286 733 l 286 543 l 101 543 m 101 0 l 101 190 l 286 190 l 286 0 l 101 0 z "},";":{"ha":388,"x_min":54,"x_max":286,"o":"m 101 543 l 101 733 l 286 733 l 286 543 l 101 543 m 72 -201 l 54 -131 q 174 -15 174 -107 q 173 -8 174 -12 q 172 0 172 -3 l 101 0 l 101 190 l 286 190 l 286 29 q 233 -138 286 -83 q 72 -201 181 -193 z "},"<":{"ha":889,"x_min":97,"x_max":760,"o":"m 760 107 l 97 414 l 97 564 l 760 871 l 760 711 l 264 490 l 760 268 l 760 107 z "},"=":{"ha":889,"x_min":119,"x_max":769,"o":"m 119 585 l 119 740 l 769 740 l 769 585 l 119 585 m 119 238 l 119 393 l 769 393 l 769 238 l 119 238 z "},">":{"ha":889,"x_min":129,"x_max":792,"o":"m 129 107 l 129 267 l 625 488 l 129 710 l 129 871 l 792 564 l 792 414 l 129 107 z "},"?":{"ha":751,"x_min":33,"x_max":693,"o":"m 288 307 l 260 532 l 267 539 q 524 697 524 549 q 481 793 524 757 q 364 829 438 829 q 138 719 240 829 l 33 831 q 368 985 169 985 q 604 908 515 985 q 693 700 693 831 q 617 509 693 576 q 414 419 540 442 l 400 307 l 288 307 m 247 0 l 247 190 l 433 190 l 433 0 l 247 0 z "},"@":{"ha":1361,"x_min":74,"x_max":1288,"o":"m 693 -225 q 251 -48 429 -225 q 74 381 74 129 q 251 810 74 631 q 682 989 428 989 q 920 943 807 989 q 1113 822 1033 897 q 1240 646 1193 746 q 1288 439 1288 546 q 1210 183 1288 272 q 1018 93 1133 93 q 813 190 874 93 q 597 93 718 93 q 418 166 490 93 q 346 356 346 239 q 442 601 346 500 q 661 703 538 703 q 857 600 790 703 l 874 683 l 1008 663 l 947 313 q 940 253 940 271 q 969 181 940 207 q 1049 154 999 154 q 1179 228 1126 154 q 1232 439 1232 303 q 1072 786 1232 636 q 682 936 913 936 q 288 774 447 936 q 129 381 129 613 q 289 -12 129 147 q 693 -172 449 -172 q 1036 -79 875 -172 l 1061 -121 q 693 -225 890 -225 m 635 214 q 769 278 711 214 q 826 433 826 343 q 785 542 826 500 q 681 583 743 583 q 545 519 603 583 q 488 364 488 456 q 528 253 488 293 q 635 214 568 214 z "},"A":{"ha":1097,"x_min":42,"x_max":1056,"o":"m 42 0 l 469 979 l 628 979 l 1056 0 l 875 0 l 776 235 l 317 235 l 217 0 l 42 0 m 379 386 l 714 386 l 546 775 l 379 386 z "},"B":{"ha":1003,"x_min":125,"x_max":935,"o":"m 125 0 l 125 972 l 561 972 q 815 886 729 972 q 881 722 881 821 q 742 506 881 578 q 935 267 935 440 q 838 69 935 139 q 575 0 740 0 l 125 0 m 293 563 l 526 563 q 660 597 611 563 q 710 697 710 631 q 665 788 710 756 q 539 821 621 821 l 293 821 l 293 563 m 293 151 l 576 151 q 715 186 665 151 q 764 288 764 221 q 564 418 764 418 l 293 418 l 293 151 z "},"C":{"ha":1025,"x_min":82,"x_max":971,"o":"m 576 -17 q 224 128 365 -17 q 82 486 82 274 q 224 843 82 697 q 583 989 365 989 q 798 950 710 989 q 964 838 886 911 l 854 711 q 582 832 724 832 q 352 732 443 832 q 261 486 261 632 q 353 241 261 342 q 582 140 444 140 q 729 172 665 140 q 861 267 793 203 l 971 156 q 797 26 889 69 q 576 -17 706 -17 z "},"D":{"ha":1086,"x_min":125,"x_max":1004,"o":"m 125 0 l 125 972 l 488 972 q 860 834 715 972 q 1004 486 1004 696 q 859 139 1004 278 q 488 0 714 0 l 125 0 m 296 156 l 488 156 q 732 248 639 156 q 825 486 825 340 q 732 724 825 631 q 488 817 639 817 l 296 817 l 296 156 z "},"E":{"ha":931,"x_min":125,"x_max":853,"o":"m 125 0 l 125 972 l 846 972 l 846 819 l 296 819 l 296 567 l 783 567 l 783 414 l 296 414 l 296 153 l 853 153 l 853 0 l 125 0 z "},"F":{"ha":911,"x_min":125,"x_max":849,"o":"m 125 0 l 125 972 l 849 972 l 849 817 l 296 817 l 296 551 l 786 551 l 786 396 l 296 396 l 296 0 l 125 0 z "},"G":{"ha":1089,"x_min":82,"x_max":992,"o":"m 586 -17 q 222 126 361 -17 q 82 486 82 268 q 224 842 82 694 q 583 989 367 989 q 792 956 706 989 q 957 857 878 924 l 849 728 q 726 806 788 781 q 576 832 664 832 q 352 731 443 832 q 261 486 261 629 q 353 237 261 335 q 592 139 444 139 q 826 213 728 139 l 826 394 l 578 394 l 578 543 l 992 543 l 992 135 q 586 -17 815 -17 z "},"H":{"ha":1056,"x_min":125,"x_max":931,"o":"m 125 0 l 125 972 l 296 972 l 296 568 l 760 568 l 760 972 l 931 972 l 931 0 l 760 0 l 760 410 l 296 410 l 296 0 l 125 0 z "},"I":{"ha":440,"x_min":135,"x_max":306,"o":"m 135 0 l 135 972 l 306 972 l 306 0 l 135 0 z "},"J":{"ha":776,"x_min":29,"x_max":667,"o":"m 340 -14 q 29 143 144 -14 l 142 258 q 338 144 232 144 q 450 192 408 144 q 492 335 492 240 l 492 972 l 667 972 l 667 331 q 576 72 667 163 q 340 -14 490 -14 z "},"K":{"ha":1007,"x_min":125,"x_max":986,"o":"m 125 0 l 125 972 l 296 972 l 296 483 l 758 972 l 968 972 l 564 554 l 986 0 l 779 0 l 447 438 l 296 282 l 296 0 l 125 0 z "},"L":{"ha":860,"x_min":125,"x_max":807,"o":"m 125 0 l 125 972 l 296 972 l 296 156 l 807 156 l 807 0 l 125 0 z "},"M":{"ha":1206,"x_min":125,"x_max":1081,"o":"m 125 0 l 125 972 l 307 972 l 603 513 l 899 972 l 1081 972 l 1081 0 l 910 0 l 910 697 l 603 239 l 597 239 l 293 694 l 293 0 l 125 0 z "},"N":{"ha":1097,"x_min":125,"x_max":972,"o":"m 125 0 l 125 972 l 283 972 l 804 300 l 804 972 l 972 972 l 972 0 l 829 0 l 293 692 l 293 0 l 125 0 z "},"O":{"ha":1181,"x_min":82,"x_max":1099,"o":"m 954 131 q 882 57 954 131 q 589 -17 810 -17 q 225 129 368 -17 q 82 486 82 275 q 226 842 82 694 q 592 989 371 989 q 956 843 813 989 q 1099 486 1099 697 q 954 131 1099 278 m 355 241 q 402 191 355 241 q 592 140 449 140 q 827 240 735 140 q 919 486 919 340 q 826 731 919 631 q 589 832 732 832 q 353 732 446 832 q 261 486 261 632 q 355 241 261 342 z "},"P":{"ha":928,"x_min":125,"x_max":878,"o":"m 125 0 l 125 972 l 508 972 q 778 883 678 972 q 878 644 878 794 q 767 400 878 488 q 489 313 657 313 l 296 313 l 296 0 l 125 0 m 296 467 l 494 467 q 647 515 590 467 q 704 643 704 564 q 648 772 704 726 q 494 817 592 817 l 296 817 l 296 467 z "},"Q":{"ha":1181,"x_min":82,"x_max":1111,"o":"m 1001 -29 l 885 75 q 589 -17 756 -17 q 225 129 368 -17 q 82 486 82 275 q 226 842 82 694 q 592 989 371 989 q 956 843 813 989 q 1099 486 1099 697 q 1000 188 1099 318 l 1111 93 l 1001 -29 m 592 140 q 758 188 685 140 l 592 329 l 701 454 l 869 301 q 919 486 919 378 q 826 731 919 631 q 589 832 732 832 q 353 732 446 832 q 261 486 261 632 q 355 241 261 342 q 592 140 449 140 z "},"R":{"ha":1004,"x_min":125,"x_max":950,"o":"m 125 0 l 125 972 l 558 972 q 824 888 728 972 q 919 663 919 804 q 857 473 919 547 q 688 368 794 399 l 950 0 l 749 0 l 507 339 l 296 339 l 296 0 l 125 0 m 296 490 l 546 490 q 692 535 638 490 q 746 656 746 579 q 693 775 746 733 q 544 817 640 817 l 296 817 l 296 490 z "},"S":{"ha":889,"x_min":60,"x_max":813,"o":"m 465 -14 q 60 142 233 -14 l 163 264 q 469 138 308 138 q 595 172 549 138 q 642 263 642 206 q 597 349 642 317 q 422 413 553 382 q 176 515 253 453 q 99 704 99 576 q 192 908 99 829 q 431 986 285 986 q 783 864 631 986 l 692 735 q 428 835 557 835 q 312 801 354 835 q 269 717 269 768 q 316 628 269 660 q 500 564 363 597 q 737 460 661 525 q 813 276 813 394 q 717 64 813 142 q 465 -14 621 -14 z "},"T":{"ha":900,"x_min":56,"x_max":844,"o":"m 364 0 l 364 814 l 56 814 l 56 972 l 844 972 l 844 814 l 536 814 l 536 0 l 364 0 z "},"U":{"ha":1051,"x_min":110,"x_max":942,"o":"m 524 -15 q 220 94 331 -15 q 110 413 110 204 l 110 972 l 281 972 l 281 419 q 346 214 281 286 q 526 142 411 142 q 706 211 642 142 q 771 413 771 281 l 771 972 l 942 972 l 942 421 q 831 97 942 208 q 524 -15 719 -15 z "},"V":{"ha":1042,"x_min":42,"x_max":1000,"o":"m 446 -7 l 42 972 l 231 972 l 524 225 l 815 972 l 1000 972 l 596 -7 l 446 -7 z "},"W":{"ha":1550,"x_min":50,"x_max":1500,"o":"m 389 -7 l 50 972 l 235 972 l 467 251 l 706 975 l 850 975 l 1089 251 l 1321 972 l 1500 972 l 1161 -7 l 1014 -7 l 775 692 l 536 -7 l 389 -7 z "},"X":{"ha":1013,"x_min":51,"x_max":961,"o":"m 51 0 l 406 494 l 65 972 l 267 972 l 508 624 l 751 972 l 947 972 l 608 497 l 961 0 l 760 0 l 504 368 l 247 0 l 51 0 z "},"Y":{"ha":994,"x_min":25,"x_max":969,"o":"m 411 0 l 411 383 l 25 972 l 226 972 l 499 542 l 774 972 l 969 972 l 583 388 l 583 0 l 411 0 z "},"Z":{"ha":975,"x_min":90,"x_max":886,"o":"m 90 0 l 90 126 l 664 821 l 108 821 l 108 972 l 886 972 l 886 846 l 313 151 l 886 151 l 886 0 l 90 0 z "},"[":{"ha":631,"x_min":122,"x_max":549,"o":"m 122 -181 l 122 972 l 549 972 l 549 840 l 282 840 l 282 -49 l 549 -49 l 549 -181 l 122 -181 z "},"\\":{"ha":724,"x_min":-15,"x_max":758,"o":"m 613 -178 l -15 1108 l 131 1108 l 758 -178 l 613 -178 z "},"]":{"ha":631,"x_min":82,"x_max":510,"o":"m 82 -181 l 82 -49 l 349 -49 l 349 840 l 82 840 l 82 972 l 510 972 l 510 -181 l 82 -181 z "},"^":{"ha":694,"x_min":78,"x_max":617,"o":"m 78 685 l 288 974 l 407 974 l 617 685 l 488 685 l 346 868 l 204 685 l 78 685 z "},"_":{"ha":833,"x_min":-3,"x_max":836,"o":"m -3 -222 l -3 -92 l 836 -92 l 836 -222 l -3 -222 z "},"`":{"ha":694,"x_min":172,"x_max":472,"o":"m 342 826 l 172 986 l 325 1054 l 472 826 l 342 826 z "},"a":{"ha":815,"x_min":56,"x_max":721,"o":"m 721 0 l 554 0 l 554 90 q 317 -15 465 -15 q 131 45 207 -15 q 56 214 56 106 q 138 393 56 332 q 353 454 219 454 q 556 424 460 454 l 556 438 q 509 554 556 514 q 375 594 463 594 q 165 549 275 594 l 119 683 q 399 744 256 744 q 640 664 558 744 q 721 435 721 583 l 721 0 m 558 265 l 558 307 q 390 336 483 336 q 267 306 311 336 q 222 219 222 275 q 263 140 222 169 q 364 111 303 111 q 503 154 449 111 q 558 265 558 197 z "},"b":{"ha":931,"x_min":106,"x_max":864,"o":"m 522 -15 q 274 114 371 -15 l 274 0 l 106 0 l 106 1014 l 274 1014 l 274 611 q 522 749 371 749 q 763 645 661 749 q 864 365 864 542 q 763 88 864 192 q 522 -15 661 -15 m 483 131 q 633 196 572 131 q 693 368 693 261 q 632 538 693 472 q 483 603 571 603 q 333 536 396 603 q 269 365 269 469 q 333 197 269 263 q 483 131 396 131 z "},"c":{"ha":793,"x_min":65,"x_max":744,"o":"m 444 -17 q 174 94 282 -17 q 65 365 65 206 q 174 636 65 524 q 446 749 283 749 q 739 622 624 749 l 635 510 q 444 601 547 601 q 294 533 354 601 q 233 365 233 464 q 295 197 233 265 q 453 129 357 129 q 643 221 554 129 l 744 121 q 615 19 685 54 q 444 -17 544 -17 z "},"d":{"ha":931,"x_min":68,"x_max":826,"o":"m 408 -15 q 169 88 271 -15 q 68 368 68 192 q 169 646 68 543 q 408 749 269 749 q 658 619 558 749 l 658 1014 l 826 1014 l 826 0 l 658 0 l 658 122 q 408 -15 561 -15 m 299 196 q 330 163 299 196 q 449 131 361 131 q 599 197 536 131 q 661 368 661 264 q 599 537 661 471 q 449 603 536 603 q 299 538 360 603 q 238 365 238 474 q 299 196 238 261 z "},"e":{"ha":839,"x_min":65,"x_max":775,"o":"m 442 -17 q 173 90 281 -17 q 65 367 65 197 q 167 638 65 526 q 424 749 268 749 q 683 635 590 749 q 775 354 775 522 q 772 307 775 324 l 233 307 q 304 170 247 219 q 444 121 361 121 q 643 208 553 121 l 742 121 q 442 -17 628 -17 m 232 418 l 608 418 q 551 557 600 503 q 422 611 503 611 q 294 558 346 611 q 232 418 243 504 z "},"f":{"ha":522,"x_min":50,"x_max":504,"o":"m 143 0 l 143 589 l 50 589 l 50 729 l 143 729 l 143 782 q 203 964 143 904 q 368 1022 261 1022 q 504 1003 439 1022 l 504 861 q 406 879 450 879 q 308 768 308 879 l 308 728 l 503 728 l 503 589 l 311 589 l 311 0 l 143 0 z "},"g":{"ha":931,"x_min":68,"x_max":826,"o":"m 432 -225 q 104 -137 249 -225 l 167 -11 q 428 -89 292 -89 q 600 -31 540 -89 q 660 136 660 26 l 660 193 q 401 58 556 58 q 167 153 265 58 q 68 404 68 247 q 167 654 68 560 q 401 749 267 749 q 658 624 554 749 l 658 733 l 826 733 l 826 150 q 733 -126 826 -33 q 432 -225 635 -225 m 446 200 q 598 258 535 200 q 661 404 661 315 q 598 550 661 493 q 446 607 535 607 q 297 551 357 607 q 238 403 238 494 q 298 257 238 314 q 446 200 358 200 z "},"h":{"ha":861,"x_min":106,"x_max":764,"o":"m 106 0 l 106 1014 l 274 1014 l 274 619 q 503 749 361 749 q 694 672 625 749 q 764 467 764 596 l 764 0 l 596 0 l 596 417 q 555 549 596 503 q 439 596 514 596 q 319 547 365 596 q 274 414 274 499 l 274 0 l 106 0 z "},"i":{"ha":397,"x_min":108,"x_max":289,"o":"m 108 846 l 108 1006 l 289 1006 l 289 846 l 108 846 m 115 0 l 115 733 l 283 733 l 283 0 l 115 0 z "},"j":{"ha":397,"x_min":-11,"x_max":289,"o":"m 108 846 l 108 1006 l 289 1006 l 289 846 l 108 846 m 69 -226 q -11 -219 33 -226 l -11 -85 q 36 -89 14 -89 q 115 0 115 -89 l 115 733 l 283 733 l 283 -10 q 69 -226 283 -226 z "},"k":{"ha":808,"x_min":106,"x_max":792,"o":"m 106 0 l 106 1014 l 274 1014 l 274 408 l 578 733 l 782 733 l 490 435 l 792 0 l 597 0 l 376 317 l 274 210 l 274 0 l 106 0 z "},"l":{"ha":397,"x_min":115,"x_max":283,"o":"m 115 0 l 115 1014 l 283 1014 l 283 0 l 115 0 z "},"m":{"ha":1319,"x_min":106,"x_max":1221,"o":"m 106 0 l 106 733 l 274 733 l 274 622 q 497 749 365 749 q 715 619 650 749 q 964 749 814 749 q 1153 675 1085 749 q 1221 468 1221 601 l 1221 0 l 1053 0 l 1053 417 q 1014 550 1053 504 q 904 596 975 596 q 790 548 833 596 q 747 414 747 500 l 747 0 l 579 0 l 579 418 q 540 549 579 503 q 431 596 501 596 q 317 547 360 596 q 274 413 274 497 l 274 0 l 106 0 z "},"n":{"ha":861,"x_min":106,"x_max":764,"o":"m 106 0 l 106 733 l 274 733 l 274 619 q 503 749 361 749 q 694 672 625 749 q 764 467 764 596 l 764 0 l 596 0 l 596 417 q 555 549 596 503 q 439 596 514 596 q 319 547 365 596 q 274 414 274 499 l 274 0 l 106 0 z "},"o":{"ha":913,"x_min":65,"x_max":847,"o":"m 454 -17 q 176 94 288 -17 q 65 365 65 206 q 178 637 65 525 q 457 749 290 749 q 735 638 624 749 q 847 365 847 526 q 735 95 847 207 q 454 -17 622 -17 m 457 129 q 618 197 557 129 q 679 365 679 265 q 615 533 679 464 q 454 601 551 601 q 294 533 356 601 q 233 365 233 465 q 297 199 233 268 q 457 129 361 129 z "},"p":{"ha":931,"x_min":106,"x_max":864,"o":"m 106 -222 l 106 733 l 274 733 l 274 611 q 522 749 371 749 q 763 645 661 749 q 864 365 864 542 q 763 88 864 192 q 522 -15 661 -15 q 274 114 371 -15 l 274 -222 l 106 -222 m 483 131 q 633 196 572 131 q 693 368 693 261 q 632 538 693 472 q 483 603 571 603 q 333 536 396 603 q 269 365 269 469 q 333 197 269 263 q 483 131 396 131 z "},"q":{"ha":931,"x_min":68,"x_max":826,"o":"m 658 -222 l 658 122 q 408 -15 561 -15 q 169 88 271 -15 q 68 368 68 192 q 169 646 68 543 q 408 749 269 749 q 658 619 558 749 l 658 733 l 826 733 l 826 -222 l 658 -222 m 299 196 q 330 163 299 196 q 449 131 361 131 q 599 197 536 131 q 661 368 661 264 q 599 537 661 471 q 449 603 536 603 q 299 538 360 603 q 238 365 238 474 q 299 196 238 261 z "},"r":{"ha":574,"x_min":106,"x_max":533,"o":"m 106 0 l 106 733 l 274 733 l 274 568 q 533 747 351 756 l 533 569 l 524 569 q 342 495 410 569 q 274 279 274 421 l 274 0 l 106 0 z "},"s":{"ha":694,"x_min":46,"x_max":629,"o":"m 357 -14 q 46 96 185 -14 l 121 210 q 361 119 240 119 q 445 141 415 119 q 475 201 475 163 q 465 235 475 221 q 428 263 454 250 q 383 281 401 275 q 324 299 365 286 l 311 303 q 245 324 272 314 q 185 353 218 335 q 131 392 151 371 q 96 447 110 414 q 82 522 82 481 q 156 685 82 624 q 343 746 231 746 q 613 663 486 746 l 546 543 q 339 613 432 613 q 263 592 290 613 q 236 536 236 571 q 260 493 236 513 q 309 465 285 474 q 388 438 333 456 q 394 435 390 436 q 401 433 399 433 q 483 403 450 418 q 553 364 517 389 q 610 302 590 339 q 629 217 629 265 q 553 46 629 106 q 357 -14 476 -14 z "},"t":{"ha":569,"x_min":47,"x_max":506,"o":"m 351 -12 q 140 203 140 -12 l 140 589 l 47 589 l 47 733 l 140 733 l 140 935 l 308 935 l 308 733 l 506 733 l 506 589 l 308 589 l 308 229 q 399 138 308 138 q 503 163 453 138 l 503 25 q 351 -12 436 -12 z "},"u":{"ha":861,"x_min":97,"x_max":756,"o":"m 358 -15 q 167 61 236 -15 q 97 267 97 138 l 97 733 l 265 733 l 265 317 q 306 184 265 231 q 422 138 347 138 q 542 186 496 138 q 588 319 588 235 l 588 733 l 756 733 l 756 0 l 588 0 l 588 114 q 358 -15 500 -15 z "},"v":{"ha":826,"x_min":36,"x_max":789,"o":"m 338 -6 l 36 733 l 217 733 l 414 194 l 613 733 l 789 733 l 489 -6 l 338 -6 z "},"w":{"ha":1196,"x_min":44,"x_max":1151,"o":"m 282 -6 l 44 733 l 217 733 l 364 231 l 526 736 l 669 736 l 833 231 l 983 733 l 1151 733 l 911 -6 l 761 -6 l 597 496 l 432 -6 l 282 -6 z "},"x":{"ha":806,"x_min":42,"x_max":764,"o":"m 42 0 l 311 372 l 51 733 l 235 733 l 404 492 l 574 733 l 753 733 l 493 376 l 764 0 l 581 0 l 400 257 l 221 0 l 42 0 z "},"y":{"ha":828,"x_min":36,"x_max":789,"o":"m 256 -226 q 82 -182 164 -226 l 139 -57 q 238 -85 190 -85 q 297 -66 274 -85 q 342 0 321 -47 l 36 733 l 215 733 l 424 189 l 614 733 l 789 733 l 497 -21 q 399 -180 453 -133 q 256 -226 344 -226 z "},"z":{"ha":778,"x_min":72,"x_max":710,"o":"m 72 0 l 72 115 l 496 596 l 88 596 l 88 733 l 710 733 l 710 618 l 286 138 l 710 138 l 710 0 l 72 0 z "},"{":{"ha":676,"x_min":72,"x_max":607,"o":"m 578 -196 q 330 -97 397 -162 q 263 82 263 -32 q 264 131 263 92 q 265 182 265 169 q 230 299 265 264 q 108 335 194 335 l 72 335 l 72 463 l 108 463 q 230 498 194 463 q 265 615 265 533 q 264 667 265 628 q 263 715 263 706 q 330 894 263 829 q 578 993 397 960 l 607 882 q 453 810 488 849 q 418 692 418 772 q 419 641 418 678 q 421 589 421 604 q 385 467 421 511 q 276 399 349 422 q 385 331 350 375 q 421 208 421 286 q 419 156 421 193 q 418 106 418 119 q 453 -13 418 25 q 607 -85 488 -51 l 578 -196 z "},"|":{"ha":460,"x_min":163,"x_max":297,"o":"m 163 -178 l 163 1108 l 297 1108 l 297 -178 l 163 -178 z "},"}":{"ha":676,"x_min":69,"x_max":604,"o":"m 99 -196 l 69 -85 q 224 -13 189 -51 q 258 106 258 25 q 257 156 258 119 q 256 208 256 193 q 292 331 256 286 q 400 399 328 375 q 291 467 326 422 q 256 589 256 511 q 257 641 256 604 q 258 692 258 678 q 224 810 258 772 q 69 882 189 849 l 99 993 q 347 894 279 960 q 414 715 414 829 q 413 667 414 706 q 411 615 411 628 q 447 498 411 533 q 568 463 482 463 l 604 463 l 604 335 l 568 335 q 447 299 482 335 q 411 182 411 264 q 413 131 411 169 q 414 82 414 92 q 347 -97 414 -32 q 99 -196 279 -162 z "},"~":{"ha":688,"x_min":82,"x_max":606,"o":"m 175 318 l 82 347 q 141 478 106 436 q 238 519 176 519 q 347 492 279 519 q 436 464 415 464 q 481 480 465 464 q 513 533 497 496 l 606 506 q 547 374 582 417 q 450 332 511 332 q 340 360 408 332 q 251 388 272 388 q 206 372 222 388 q 175 318 190 356 z "}," ":{"ha":417,"x_min":0,"x_max":0,"o":""},"¡":{"ha":419,"x_min":111,"x_max":308,"o":"m 118 782 l 118 972 l 303 972 l 303 782 l 118 782 m 111 0 l 111 49 l 164 665 l 257 665 l 308 49 l 308 0 l 111 0 z "},"¢":{"ha":807,"x_min":72,"x_max":747,"o":"m 292 -8 l 319 133 q 141 271 210 172 q 72 493 72 369 q 181 764 72 653 q 451 875 289 875 l 464 875 l 485 981 l 607 981 l 582 857 q 746 749 672 829 l 644 640 q 549 710 596 689 l 458 257 q 650 347 560 258 l 747 251 q 446 111 624 111 l 438 111 l 414 -8 l 292 -8 m 354 281 l 442 729 q 295 660 354 728 q 236 493 236 592 q 267 367 236 424 q 354 281 299 310 z "},"£":{"ha":894,"x_min":88,"x_max":824,"o":"m 88 0 l 88 108 l 197 142 l 197 386 l 88 386 l 88 531 l 197 531 l 197 658 q 281 899 197 811 q 517 986 365 986 q 824 831 706 986 l 693 726 q 613 803 653 778 q 518 828 574 828 q 410 781 450 828 q 369 654 369 735 l 369 531 l 715 531 l 715 386 l 369 386 l 369 149 l 821 149 l 821 0 l 88 0 z "},"¤":{"ha":1000,"x_min":72,"x_max":939,"o":"m 603 -17 q 345 73 451 -17 q 199 313 239 163 l 72 313 l 72 431 l 179 431 q 178 486 178 449 q 181 549 178 529 l 72 549 l 72 667 l 203 667 q 350 900 246 811 q 597 989 454 989 q 795 941 715 989 q 936 806 875 893 l 807 710 q 711 806 760 775 q 593 836 663 836 q 465 791 521 836 q 379 667 408 746 l 678 667 l 678 549 l 353 549 q 350 486 350 513 q 353 431 350 467 l 678 431 l 678 313 l 378 313 q 465 183 407 231 q 604 136 524 136 q 717 168 669 136 q 817 268 764 200 l 939 179 q 794 34 874 85 q 603 -17 714 -17 z "},"¥":{"ha":953,"x_min":26,"x_max":926,"o":"m 394 0 l 394 142 l 126 142 l 126 265 l 394 265 l 394 367 l 126 367 l 126 490 l 347 490 l 26 972 l 225 972 l 479 565 l 733 972 l 926 972 l 604 490 l 826 490 l 826 367 l 558 367 l 558 265 l 826 265 l 826 142 l 558 142 l 558 0 l 394 0 z "},"¦":{"ha":308,"x_min":74,"x_max":232,"o":"m 74 -124 l 74 224 l 232 224 l 232 -124 l 74 -124 m 74 571 l 74 918 l 232 918 l 232 571 l 74 571 z "},"§":{"ha":878,"x_min":81,"x_max":797,"o":"m 453 -14 q 132 118 257 -14 l 228 213 q 451 114 333 114 q 564 185 564 114 q 525 237 564 215 q 381 282 486 258 q 149 365 218 319 q 81 488 81 411 q 229 649 81 610 q 153 783 153 697 q 226 931 153 876 q 425 986 299 986 q 746 854 621 986 l 650 760 q 426 858 544 858 q 343 840 372 858 q 314 788 314 821 q 351 737 314 758 q 497 690 389 715 q 729 608 661 653 q 797 485 797 563 q 649 324 797 363 q 725 189 725 278 q 652 41 725 96 q 453 -14 579 -14 m 539 386 q 616 408 586 386 q 646 464 646 429 q 608 517 646 494 q 483 561 571 539 q 339 586 385 586 q 262 565 292 586 q 232 508 232 543 q 269 456 232 478 q 394 411 307 433 q 539 386 493 386 z "},"¨":{"ha":694,"x_min":124,"x_max":571,"o":"m 400 826 l 400 990 l 571 990 l 571 826 l 400 826 m 124 826 l 124 990 l 294 990 l 294 826 l 124 826 z "},"©":{"ha":1153,"x_min":74,"x_max":1079,"o":"m 932 131 q 858 57 932 131 q 575 -17 785 -17 q 219 131 365 -17 q 74 486 74 278 q 221 841 74 693 q 578 989 368 989 q 933 842 788 989 q 1079 486 1079 694 q 932 131 1079 279 m 575 33 q 897 166 767 33 q 1026 489 1026 299 q 897 808 1026 676 q 578 939 768 939 q 256 806 386 939 q 126 483 126 674 q 256 165 126 296 q 575 33 385 33 m 582 221 q 392 299 468 221 q 315 493 315 378 q 392 686 315 607 q 585 765 468 765 q 792 683 707 765 l 726 608 q 585 671 657 671 q 467 619 514 671 q 421 492 421 567 q 468 367 421 419 q 585 315 515 315 q 729 381 660 315 l 796 315 q 582 221 706 221 z "},"ª":{"ha":542,"x_min":74,"x_max":449,"o":"m 221 560 q 119 593 160 560 q 78 688 78 626 q 124 783 78 750 q 244 817 169 817 q 350 801 294 817 l 350 808 q 253 893 350 893 q 138 867 204 893 l 111 942 q 265 976 185 976 q 443 807 443 976 l 443 568 l 349 568 l 349 615 q 221 560 300 560 m 74 392 l 74 472 l 449 472 l 449 392 l 74 392 m 246 631 q 320 654 290 631 q 350 714 350 678 l 350 739 q 263 754 307 754 q 174 689 174 754 q 194 647 174 663 q 246 631 214 631 z "},"«":{"ha":842,"x_min":61,"x_max":768,"o":"m 640 57 l 411 361 l 411 372 l 640 678 l 768 613 l 585 368 l 768 122 l 640 57 m 292 57 l 61 361 l 61 372 l 292 678 l 419 613 l 236 368 l 419 122 l 292 57 z "},"¬":{"ha":889,"x_min":114,"x_max":771,"o":"m 613 342 l 613 582 l 114 582 l 114 736 l 771 736 l 771 342 l 613 342 z "},"­":{"ha":567,"x_min":78,"x_max":489,"o":"m 78 343 l 78 508 l 489 508 l 489 343 l 78 343 z "},"®":{"ha":1153,"x_min":74,"x_max":1079,"o":"m 932 131 q 858 57 932 131 q 575 -17 785 -17 q 219 131 365 -17 q 74 486 74 278 q 221 841 74 693 q 578 989 368 989 q 933 842 788 989 q 1079 486 1079 694 q 932 131 1079 279 m 575 33 q 897 166 767 33 q 1026 489 1026 299 q 897 808 1026 676 q 578 939 768 939 q 256 806 386 939 q 126 483 126 674 q 256 165 126 296 q 575 33 385 33 m 374 238 l 374 764 l 608 764 q 768 707 711 764 q 811 594 811 667 q 778 493 811 533 q 689 436 746 453 l 831 238 l 711 238 l 581 419 l 474 419 l 474 238 l 374 238 m 474 507 l 604 507 q 681 529 653 507 q 708 592 708 551 q 681 652 708 631 q 604 674 653 674 l 474 674 l 474 507 z "},"¯":{"ha":694,"x_min":110,"x_max":585,"o":"m 110 833 l 110 957 l 585 957 l 585 833 l 110 833 z "},"°":{"ha":654,"x_min":96,"x_max":558,"o":"m 488 597 q 453 563 488 597 q 326 529 418 529 q 165 597 235 529 q 96 754 96 664 l 96 757 q 165 914 96 847 q 326 981 235 981 q 488 914 418 981 q 558 757 558 847 l 558 754 q 488 597 558 664 m 233 660 q 252 641 233 660 q 326 621 271 621 q 420 660 382 621 q 458 754 458 700 l 458 757 q 421 850 458 811 q 326 889 383 889 q 233 850 271 889 q 196 757 196 811 l 196 754 q 233 660 196 700 z "},"±":{"ha":889,"x_min":96,"x_max":790,"o":"m 104 22 l 104 167 l 785 167 l 785 22 l 104 22 m 365 244 l 365 457 l 96 457 l 96 608 l 365 608 l 365 819 l 524 819 l 524 608 l 790 608 l 790 457 l 524 457 l 524 244 l 365 244 z "},"²":{"ha":694,"x_min":0,"x_max":694,"o":"m 0 0 l 0 972 l 694 972 l 694 0 l 0 0 m 113 68 l 583 68 l 347 422 l 113 68 m 68 133 l 306 486 l 68 839 l 68 133 m 625 133 l 625 839 l 388 486 l 625 133 m 347 549 l 583 903 l 113 903 l 347 549 z "},"³":{"ha":694,"x_min":0,"x_max":694,"o":"m 0 0 l 0 972 l 694 972 l 694 0 l 0 0 m 113 68 l 583 68 l 347 422 l 113 68 m 68 133 l 306 486 l 68 839 l 68 133 m 625 133 l 625 839 l 388 486 l 625 133 m 347 549 l 583 903 l 113 903 l 347 549 z "},"´":{"ha":694,"x_min":222,"x_max":522,"o":"m 222 826 l 369 1054 l 522 986 l 353 826 l 222 826 z "},"µ":{"ha":872,"x_min":104,"x_max":767,"o":"m 104 -222 l 104 733 l 272 733 l 272 314 q 317 185 272 238 q 429 132 361 132 q 551 184 504 132 q 599 321 599 236 l 599 733 l 767 733 l 767 0 l 599 0 l 599 115 q 388 -8 524 -8 q 272 42 307 -8 l 272 -222 l 104 -222 z "},"¶":{"ha":774,"x_min":56,"x_max":653,"o":"m 481 0 l 481 339 l 456 339 q 167 422 278 339 q 56 657 56 504 q 159 888 56 803 q 432 972 263 972 l 653 972 l 653 0 l 481 0 z "},"·":{"ha":374,"x_min":94,"x_max":279,"o":"m 94 331 l 94 521 l 279 521 l 279 331 l 94 331 z "},"¸":{"ha":694,"x_min":182,"x_max":433,"o":"m 329 -229 l 182 -168 l 307 14 l 433 14 l 329 -229 z "},"¹":{"ha":694,"x_min":0,"x_max":694,"o":"m 0 0 l 0 972 l 694 972 l 694 0 l 0 0 m 113 68 l 583 68 l 347 422 l 113 68 m 68 133 l 306 486 l 68 839 l 68 133 m 625 133 l 625 839 l 388 486 l 625 133 m 347 549 l 583 903 l 113 903 l 347 549 z "},"º":{"ha":542,"x_min":61,"x_max":481,"o":"m 269 558 q 121 619 181 558 q 61 769 61 681 q 122 918 61 857 q 272 979 182 979 q 421 918 361 979 q 481 768 481 857 q 420 619 481 681 q 269 558 360 558 m 71 392 l 71 472 l 471 472 l 471 392 l 71 392 m 272 644 q 353 681 322 644 q 383 769 383 717 q 351 857 383 821 q 269 893 318 893 q 189 857 219 893 q 158 768 158 821 q 191 681 158 717 q 272 644 224 644 z "},"»":{"ha":842,"x_min":74,"x_max":781,"o":"m 550 57 l 422 121 l 606 365 l 422 611 l 550 678 l 781 372 l 781 361 l 550 57 m 201 57 l 74 121 l 257 365 l 74 611 l 201 678 l 431 372 l 431 361 l 201 57 z "},"¼":{"ha":694,"x_min":0,"x_max":694,"o":"m 0 0 l 0 972 l 694 972 l 694 0 l 0 0 m 113 68 l 583 68 l 347 422 l 113 68 m 68 133 l 306 486 l 68 839 l 68 133 m 625 133 l 625 839 l 388 486 l 625 133 m 347 549 l 583 903 l 113 903 l 347 549 z "},"½":{"ha":694,"x_min":0,"x_max":694,"o":"m 0 0 l 0 972 l 694 972 l 694 0 l 0 0 m 113 68 l 583 68 l 347 422 l 113 68 m 68 133 l 306 486 l 68 839 l 68 133 m 625 133 l 625 839 l 388 486 l 625 133 m 347 549 l 583 903 l 113 903 l 347 549 z "},"¾":{"ha":694,"x_min":0,"x_max":694,"o":"m 0 0 l 0 972 l 694 972 l 694 0 l 0 0 m 113 68 l 583 68 l 347 422 l 113 68 m 68 133 l 306 486 l 68 839 l 68 133 m 625 133 l 625 839 l 388 486 l 625 133 m 347 549 l 583 903 l 113 903 l 347 549 z "},"¿":{"ha":751,"x_min":58,"x_max":718,"o":"m 318 782 l 318 972 l 504 972 l 504 782 l 318 782 m 383 -12 q 147 65 236 -12 q 58 272 58 142 q 135 463 58 396 q 338 553 211 531 l 351 665 l 464 665 l 492 440 l 485 433 q 228 275 228 424 q 271 179 228 215 q 388 143 314 143 q 614 253 511 143 l 718 142 q 383 -12 582 -12 z "},"À":{"ha":1097,"x_min":42,"x_max":1056,"o":"m 42 0 l 469 979 l 628 979 l 1056 0 l 875 0 l 776 235 l 317 235 l 217 0 l 42 0 m 379 386 l 714 386 l 546 775 l 379 386 m 488 1053 l 318 1213 l 471 1281 l 618 1053 l 488 1053 z "},"Á":{"ha":1097,"x_min":42,"x_max":1056,"o":"m 42 0 l 469 979 l 628 979 l 1056 0 l 875 0 l 776 235 l 317 235 l 217 0 l 42 0 m 379 386 l 714 386 l 546 775 l 379 386 m 479 1053 l 626 1281 l 779 1213 l 610 1053 l 479 1053 z "},"Â":{"ha":1097,"x_min":42,"x_max":1056,"o":"m 42 0 l 469 979 l 628 979 l 1056 0 l 875 0 l 776 235 l 317 235 l 217 0 l 42 0 m 379 386 l 714 386 l 546 775 l 379 386 m 310 1051 l 471 1254 l 626 1254 l 788 1051 l 654 1051 l 547 1144 l 440 1051 l 310 1051 z "},"Ã":{"ha":1097,"x_min":42,"x_max":1056,"o":"m 42 0 l 469 979 l 628 979 l 1056 0 l 875 0 l 776 235 l 317 235 l 217 0 l 42 0 m 379 386 l 714 386 l 546 775 l 379 386 m 379 1039 l 286 1067 q 345 1198 310 1156 q 442 1240 381 1240 q 551 1213 483 1240 q 642 1185 619 1185 q 685 1200 669 1185 q 718 1254 701 1215 l 811 1225 q 752 1094 788 1136 q 656 1053 717 1053 q 546 1081 614 1053 q 456 1108 478 1108 q 412 1093 428 1108 q 379 1039 396 1078 z "},"Ä":{"ha":1097,"x_min":42,"x_max":1056,"o":"m 42 0 l 469 979 l 628 979 l 1056 0 l 875 0 l 776 235 l 317 235 l 217 0 l 42 0 m 379 386 l 714 386 l 546 775 l 379 386 m 601 1053 l 601 1217 l 772 1217 l 772 1053 l 601 1053 m 325 1053 l 325 1217 l 496 1217 l 496 1053 l 325 1053 z "},"Å":{"ha":1097,"x_min":42,"x_max":1056,"o":"m 42 0 l 456 950 q 390 1074 390 999 q 438 1180 390 1135 q 549 1225 486 1225 q 659 1179 611 1225 q 707 1071 707 1133 q 642 950 707 999 l 1056 0 l 875 0 l 776 235 l 317 235 l 217 0 l 42 0 m 549 986 q 610 1012 585 986 q 635 1074 635 1038 q 609 1133 635 1108 q 549 1158 583 1158 q 488 1133 513 1158 q 463 1071 463 1107 q 488 1011 463 1036 q 549 986 514 986 m 379 386 l 714 386 l 546 775 l 379 386 z "},"Æ":{"ha":1451,"x_min":17,"x_max":1374,"o":"m 17 0 l 560 972 l 1367 972 l 1367 819 l 847 819 l 847 567 l 1304 567 l 1304 414 l 847 414 l 847 153 l 1374 153 l 1374 0 l 676 0 l 676 235 l 322 235 l 193 0 l 17 0 m 404 386 l 676 386 l 676 824 l 649 824 l 404 386 z "},"Ç":{"ha":1025,"x_min":82,"x_max":971,"o":"m 515 -229 l 369 -168 l 479 -7 q 193 163 304 25 q 82 486 82 300 q 224 843 82 697 q 583 989 365 989 q 798 950 710 989 q 964 838 886 911 l 854 711 q 582 832 724 832 q 352 732 443 832 q 261 486 261 632 q 353 241 261 342 q 582 140 444 140 q 729 172 665 140 q 861 267 793 203 l 971 156 q 809 33 894 75 q 607 -15 724 -10 l 515 -229 z "},"È":{"ha":931,"x_min":125,"x_max":853,"o":"m 125 0 l 125 972 l 846 972 l 846 819 l 296 819 l 296 567 l 783 567 l 783 414 l 296 414 l 296 153 l 853 153 l 853 0 l 125 0 m 454 1053 l 285 1213 l 438 1281 l 585 1053 l 454 1053 z "},"É":{"ha":931,"x_min":125,"x_max":853,"o":"m 125 0 l 125 972 l 846 972 l 846 819 l 296 819 l 296 567 l 783 567 l 783 414 l 296 414 l 296 153 l 853 153 l 853 0 l 125 0 m 385 1053 l 532 1281 l 685 1213 l 515 1053 l 385 1053 z "},"Ê":{"ha":931,"x_min":125,"x_max":853,"o":"m 125 0 l 125 972 l 846 972 l 846 819 l 296 819 l 296 567 l 783 567 l 783 414 l 296 414 l 296 153 l 853 153 l 853 0 l 125 0 m 243 1053 l 404 1256 l 560 1256 l 721 1053 l 588 1053 l 481 1146 l 374 1053 l 243 1053 z "},"Ë":{"ha":931,"x_min":125,"x_max":853,"o":"m 125 0 l 125 972 l 846 972 l 846 819 l 296 819 l 296 567 l 783 567 l 783 414 l 296 414 l 296 153 l 853 153 l 853 0 l 125 0 m 535 1053 l 535 1217 l 706 1217 l 706 1053 l 535 1053 m 258 1053 l 258 1217 l 429 1217 l 429 1053 l 258 1053 z "},"Ì":{"ha":440,"x_min":-8,"x_max":306,"o":"m 135 0 l 135 972 l 306 972 l 306 0 l 135 0 m 161 1053 l -8 1213 l 144 1281 l 292 1053 l 161 1053 z "},"Í":{"ha":440,"x_min":135,"x_max":450,"o":"m 135 0 l 135 972 l 306 972 l 306 0 l 135 0 m 150 1053 l 297 1281 l 450 1213 l 281 1053 l 150 1053 z "},"Î":{"ha":440,"x_min":-18,"x_max":460,"o":"m 135 0 l 135 972 l 306 972 l 306 0 l 135 0 m -18 1053 l 143 1256 l 299 1256 l 460 1053 l 326 1053 l 219 1146 l 113 1053 l -18 1053 z "},"Ï":{"ha":440,"x_min":-3,"x_max":444,"o":"m 135 0 l 135 972 l 306 972 l 306 0 l 135 0 m 274 1053 l 274 1217 l 444 1217 l 444 1053 l 274 1053 m -3 1053 l -3 1217 l 168 1217 l 168 1053 l -3 1053 z "},"Ð":{"ha":1128,"x_min":63,"x_max":1046,"o":"m 167 0 l 167 413 l 63 413 l 63 565 l 167 565 l 167 972 l 529 972 q 901 834 757 972 q 1046 486 1046 696 q 901 139 1046 278 q 529 0 756 0 l 167 0 m 336 156 l 529 156 q 774 248 681 156 q 867 486 867 340 q 774 724 867 631 q 529 817 681 817 l 336 817 l 336 565 l 581 565 l 581 413 l 336 413 l 336 156 z "},"Ñ":{"ha":1097,"x_min":125,"x_max":972,"o":"m 125 0 l 125 972 l 283 972 l 804 300 l 804 972 l 972 972 l 972 0 l 829 0 l 293 692 l 293 0 l 125 0 m 379 1039 l 286 1067 q 345 1198 310 1156 q 442 1240 381 1240 q 551 1213 483 1240 q 642 1185 619 1185 q 685 1200 669 1185 q 718 1254 701 1215 l 811 1225 q 752 1094 788 1136 q 656 1053 717 1053 q 546 1081 614 1053 q 456 1108 478 1108 q 412 1093 428 1108 q 379 1039 396 1078 z "},"Ò":{"ha":1181,"x_min":82,"x_max":1099,"o":"m 954 131 q 882 57 954 131 q 589 -17 810 -17 q 225 129 368 -17 q 82 486 82 275 q 226 842 82 694 q 592 989 371 989 q 956 843 813 989 q 1099 486 1099 697 q 954 131 1099 278 m 355 241 q 402 191 355 241 q 592 140 449 140 q 827 240 735 140 q 919 486 919 340 q 826 731 919 631 q 589 832 732 832 q 353 732 446 832 q 261 486 261 632 q 355 241 261 342 m 519 1053 l 350 1213 l 503 1281 l 650 1053 l 519 1053 z "},"Ó":{"ha":1181,"x_min":82,"x_max":1099,"o":"m 954 131 q 882 57 954 131 q 589 -17 810 -17 q 225 129 368 -17 q 82 486 82 275 q 226 842 82 694 q 592 989 371 989 q 956 843 813 989 q 1099 486 1099 697 q 954 131 1099 278 m 355 241 q 402 191 355 241 q 592 140 449 140 q 827 240 735 140 q 919 486 919 340 q 826 731 919 631 q 589 832 732 832 q 353 732 446 832 q 261 486 261 632 q 355 241 261 342 m 531 1053 l 678 1281 l 831 1213 l 661 1053 l 531 1053 z "},"Ô":{"ha":1181,"x_min":82,"x_max":1099,"o":"m 954 131 q 882 57 954 131 q 589 -17 810 -17 q 225 129 368 -17 q 82 486 82 275 q 226 842 82 694 q 592 989 371 989 q 956 843 813 989 q 1099 486 1099 697 q 954 131 1099 278 m 355 241 q 402 191 355 241 q 592 140 449 140 q 827 240 735 140 q 919 486 919 340 q 826 731 919 631 q 589 832 732 832 q 353 732 446 832 q 261 486 261 632 q 355 241 261 342 m 351 1053 l 513 1256 l 668 1256 l 829 1053 l 696 1053 l 589 1146 l 482 1053 l 351 1053 z "},"Õ":{"ha":1181,"x_min":82,"x_max":1099,"o":"m 954 131 q 882 57 954 131 q 589 -17 810 -17 q 225 129 368 -17 q 82 486 82 275 q 226 842 82 694 q 592 989 371 989 q 956 843 813 989 q 1099 486 1099 697 q 954 131 1099 278 m 355 241 q 402 191 355 241 q 592 140 449 140 q 827 240 735 140 q 919 486 919 340 q 826 731 919 631 q 589 832 732 832 q 353 732 446 832 q 261 486 261 632 q 355 241 261 342 m 421 1039 l 328 1067 q 387 1198 351 1156 q 483 1240 422 1240 q 593 1213 525 1240 q 683 1185 661 1185 q 727 1200 711 1185 q 760 1254 743 1215 l 853 1225 q 794 1094 829 1136 q 697 1053 758 1053 q 588 1081 656 1053 q 497 1108 519 1108 q 453 1093 469 1108 q 421 1039 438 1078 z "},"Ö":{"ha":1181,"x_min":82,"x_max":1099,"o":"m 954 131 q 882 57 954 131 q 589 -17 810 -17 q 225 129 368 -17 q 82 486 82 275 q 226 842 82 694 q 592 989 371 989 q 956 843 813 989 q 1099 486 1099 697 q 954 131 1099 278 m 355 241 q 402 191 355 241 q 592 140 449 140 q 827 240 735 140 q 919 486 919 340 q 826 731 919 631 q 589 832 732 832 q 353 732 446 832 q 261 486 261 632 q 355 241 261 342 m 643 1053 l 643 1217 l 814 1217 l 814 1053 l 643 1053 m 367 1053 l 367 1217 l 538 1217 l 538 1053 l 367 1053 z "},"×":{"ha":889,"x_min":92,"x_max":794,"o":"m 201 126 l 92 235 l 333 478 l 92 719 l 201 829 l 443 586 l 685 829 l 794 719 l 551 478 l 794 235 l 685 126 l 443 368 l 201 126 z "},"Ø":{"ha":1181,"x_min":71,"x_max":1110,"o":"m 589 -17 q 306 67 431 -17 l 239 -7 l 71 -7 l 208 147 q 82 486 82 286 q 226 842 82 694 q 592 989 371 989 q 875 906 750 989 l 942 979 l 1110 979 l 972 824 q 1099 486 1099 686 q 954 131 1099 278 q 589 -17 810 -17 m 322 279 l 767 779 q 589 835 689 835 q 352 734 446 835 q 258 486 258 633 q 322 279 258 368 m 592 138 q 828 238 735 138 q 922 486 922 339 q 858 693 922 604 l 414 193 q 592 138 492 138 z "},"Ù":{"ha":1051,"x_min":110,"x_max":942,"o":"m 524 -15 q 220 94 331 -15 q 110 413 110 204 l 110 972 l 281 972 l 281 419 q 346 214 281 286 q 526 142 411 142 q 706 211 642 142 q 771 413 771 281 l 771 972 l 942 972 l 942 421 q 831 97 942 208 q 524 -15 719 -15 m 474 1046 l 304 1206 l 457 1274 l 604 1046 l 474 1046 z "},"Ú":{"ha":1051,"x_min":110,"x_max":942,"o":"m 524 -15 q 220 94 331 -15 q 110 413 110 204 l 110 972 l 281 972 l 281 419 q 346 214 281 286 q 526 142 411 142 q 706 211 642 142 q 771 413 771 281 l 771 972 l 942 972 l 942 421 q 831 97 942 208 q 524 -15 719 -15 m 447 1046 l 594 1274 l 747 1206 l 578 1046 l 447 1046 z "},"Û":{"ha":1051,"x_min":110,"x_max":942,"o":"m 524 -15 q 220 94 331 -15 q 110 413 110 204 l 110 972 l 281 972 l 281 419 q 346 214 281 286 q 526 142 411 142 q 706 211 642 142 q 771 413 771 281 l 771 972 l 942 972 l 942 421 q 831 97 942 208 q 524 -15 719 -15 m 288 1051 l 449 1254 l 604 1254 l 765 1051 l 632 1051 l 525 1144 l 418 1051 l 288 1051 z "},"Ü":{"ha":1051,"x_min":110,"x_max":942,"o":"m 524 -15 q 220 94 331 -15 q 110 413 110 204 l 110 972 l 281 972 l 281 419 q 346 214 281 286 q 526 142 411 142 q 706 211 642 142 q 771 413 771 281 l 771 972 l 942 972 l 942 421 q 831 97 942 208 q 524 -15 719 -15 m 579 1051 l 579 1215 l 750 1215 l 750 1051 l 579 1051 m 303 1051 l 303 1215 l 474 1215 l 474 1051 l 303 1051 z "},"Ý":{"ha":994,"x_min":25,"x_max":969,"o":"m 411 0 l 411 383 l 25 972 l 226 972 l 499 542 l 774 972 l 969 972 l 583 388 l 583 0 l 411 0 m 432 1046 l 579 1274 l 732 1206 l 563 1046 l 432 1046 z "},"Þ":{"ha":935,"x_min":125,"x_max":878,"o":"m 125 0 l 125 972 l 296 972 l 296 819 l 508 819 q 778 731 678 819 q 878 493 878 642 q 767 248 878 335 q 489 161 657 161 l 296 161 l 296 0 l 125 0 m 296 314 l 494 314 q 647 363 590 314 q 704 492 704 413 q 648 620 704 575 q 494 665 592 665 l 296 665 l 296 314 z "},"ß":{"ha":861,"x_min":106,"x_max":793,"o":"m 411 -3 l 411 126 q 569 168 514 129 q 625 279 625 207 q 567 385 625 344 q 411 438 510 425 l 411 551 q 568 747 568 628 q 530 844 568 807 q 428 881 492 881 q 315 832 358 881 q 272 703 272 783 l 272 0 l 106 0 l 106 697 q 194 936 106 849 q 436 1024 283 1024 q 654 949 574 1024 q 735 760 735 875 q 582 522 735 607 q 793 272 793 451 q 697 70 793 143 q 433 -3 600 -3 l 411 -3 z "},"à":{"ha":815,"x_min":56,"x_max":721,"o":"m 721 0 l 554 0 l 554 90 q 317 -15 465 -15 q 131 45 207 -15 q 56 214 56 106 q 138 393 56 332 q 353 454 219 454 q 556 424 460 454 l 556 438 q 509 554 556 514 q 375 594 463 594 q 165 549 275 594 l 119 683 q 399 744 256 744 q 640 664 558 744 q 721 435 721 583 l 721 0 m 558 265 l 558 307 q 390 336 483 336 q 267 306 311 336 q 222 219 222 275 q 263 140 222 169 q 364 111 303 111 q 503 154 449 111 q 558 265 558 197 m 357 826 l 188 986 l 340 1054 l 488 826 l 357 826 z "},"á":{"ha":815,"x_min":56,"x_max":721,"o":"m 721 0 l 554 0 l 554 90 q 317 -15 465 -15 q 131 45 207 -15 q 56 214 56 106 q 138 393 56 332 q 353 454 219 454 q 556 424 460 454 l 556 438 q 509 554 556 514 q 375 594 463 594 q 165 549 275 594 l 119 683 q 399 744 256 744 q 640 664 558 744 q 721 435 721 583 l 721 0 m 558 265 l 558 307 q 390 336 483 336 q 267 306 311 336 q 222 219 222 275 q 263 140 222 169 q 364 111 303 111 q 503 154 449 111 q 558 265 558 197 m 326 826 l 474 1054 l 626 986 l 457 826 l 326 826 z "},"â":{"ha":815,"x_min":56,"x_max":721,"o":"m 721 0 l 554 0 l 554 90 q 317 -15 465 -15 q 131 45 207 -15 q 56 214 56 106 q 138 393 56 332 q 353 454 219 454 q 556 424 460 454 l 556 438 q 509 554 556 514 q 375 594 463 594 q 165 549 275 594 l 119 683 q 399 744 256 744 q 640 664 558 744 q 721 435 721 583 l 721 0 m 558 265 l 558 307 q 390 336 483 336 q 267 306 311 336 q 222 219 222 275 q 263 140 222 169 q 364 111 303 111 q 503 154 449 111 q 558 265 558 197 m 168 826 l 329 1029 l 485 1029 l 646 826 l 513 826 l 406 919 l 299 826 l 168 826 z "},"ã":{"ha":815,"x_min":56,"x_max":721,"o":"m 721 0 l 554 0 l 554 90 q 317 -15 465 -15 q 131 45 207 -15 q 56 214 56 106 q 138 393 56 332 q 353 454 219 454 q 556 424 460 454 l 556 438 q 509 554 556 514 q 375 594 463 594 q 165 549 275 594 l 119 683 q 399 744 256 744 q 640 664 558 744 q 721 435 721 583 l 721 0 m 558 265 l 558 307 q 390 336 483 336 q 267 306 311 336 q 222 219 222 275 q 263 140 222 169 q 364 111 303 111 q 503 154 449 111 q 558 265 558 197 m 239 813 l 146 840 q 205 972 169 929 q 301 1014 240 1014 q 411 986 343 1014 q 501 958 479 958 q 546 974 531 958 q 578 1028 561 989 l 671 999 q 612 868 647 910 q 515 826 576 826 q 406 854 474 826 q 315 882 338 882 q 271 867 286 882 q 239 813 256 851 z "},"ä":{"ha":815,"x_min":56,"x_max":721,"o":"m 721 0 l 554 0 l 554 90 q 317 -15 465 -15 q 131 45 207 -15 q 56 214 56 106 q 138 393 56 332 q 353 454 219 454 q 556 424 460 454 l 556 438 q 509 554 556 514 q 375 594 463 594 q 165 549 275 594 l 119 683 q 399 744 256 744 q 640 664 558 744 q 721 435 721 583 l 721 0 m 558 265 l 558 307 q 390 336 483 336 q 267 306 311 336 q 222 219 222 275 q 263 140 222 169 q 364 111 303 111 q 503 154 449 111 q 558 265 558 197 m 460 826 l 460 990 l 631 990 l 631 826 l 460 826 m 183 826 l 183 990 l 354 990 l 354 826 l 183 826 z "},"å":{"ha":815,"x_min":56,"x_max":721,"o":"m 721 0 l 554 0 l 554 90 q 317 -15 465 -15 q 131 45 207 -15 q 56 214 56 106 q 138 393 56 332 q 353 454 219 454 q 556 424 460 454 l 556 438 q 509 554 556 514 q 375 594 463 594 q 165 549 275 594 l 119 683 q 399 744 256 744 q 640 664 558 744 q 721 435 721 583 l 721 0 m 558 265 l 558 307 q 390 336 483 336 q 267 306 311 336 q 222 219 222 275 q 263 140 222 169 q 364 111 303 111 q 503 154 449 111 q 558 265 558 197 m 517 869 q 493 846 517 869 q 407 824 469 824 q 297 869 344 824 q 249 978 249 915 q 297 1084 249 1039 q 407 1129 344 1129 q 517 1083 469 1129 q 565 975 565 1038 q 517 869 565 914 m 407 890 q 468 916 443 890 q 493 978 493 942 q 467 1038 493 1013 q 407 1063 442 1063 q 346 1037 371 1063 q 321 975 321 1011 q 347 915 321 940 q 407 890 372 890 z "},"æ":{"ha":1322,"x_min":56,"x_max":1257,"o":"m 333 -15 q 135 45 214 -15 q 56 214 56 106 q 137 393 56 332 q 350 454 218 454 q 551 424 456 454 l 551 438 q 372 594 551 594 q 165 549 275 594 l 119 683 q 396 744 256 744 q 653 624 583 744 q 910 749 749 749 q 1165 635 1074 749 q 1257 354 1257 522 q 1256 307 1257 324 l 717 307 q 788 170 731 219 q 926 121 844 121 q 1126 208 1036 121 l 1225 121 q 924 -17 1108 -17 q 640 108 747 -17 q 333 -15 492 -15 m 714 418 l 1092 418 q 1035 557 1083 503 q 906 611 986 611 q 777 558 829 611 q 714 418 725 504 m 361 111 q 578 206 476 111 q 551 311 557 258 q 388 336 481 336 q 266 306 310 336 q 222 219 222 275 q 262 140 222 169 q 361 111 301 111 z "},"ç":{"ha":793,"x_min":65,"x_max":744,"o":"m 383 -229 l 236 -168 l 347 -4 q 144 130 222 28 q 65 365 65 232 q 174 636 65 524 q 446 749 283 749 q 739 622 624 749 l 635 510 q 444 601 547 601 q 294 533 354 601 q 233 365 233 464 q 295 197 233 265 q 453 129 357 129 q 643 221 554 129 l 744 121 q 624 24 688 58 q 474 -15 561 -11 l 383 -229 z "},"è":{"ha":839,"x_min":65,"x_max":775,"o":"m 442 -17 q 173 90 281 -17 q 65 367 65 197 q 167 638 65 526 q 424 749 268 749 q 683 635 590 749 q 775 354 775 522 q 772 307 775 324 l 233 307 q 304 170 247 219 q 444 121 361 121 q 643 208 553 121 l 742 121 q 442 -17 628 -17 m 232 418 l 608 418 q 551 557 600 503 q 422 611 503 611 q 294 558 346 611 q 232 418 243 504 m 363 826 l 193 986 l 346 1054 l 493 826 l 363 826 z "},"é":{"ha":839,"x_min":65,"x_max":775,"o":"m 442 -17 q 173 90 281 -17 q 65 367 65 197 q 167 638 65 526 q 424 749 268 749 q 683 635 590 749 q 775 354 775 522 q 772 307 775 324 l 233 307 q 304 170 247 219 q 444 121 361 121 q 643 208 553 121 l 742 121 q 442 -17 628 -17 m 232 418 l 608 418 q 551 557 600 503 q 422 611 503 611 q 294 558 346 611 q 232 418 243 504 m 346 826 l 493 1054 l 646 986 l 476 826 l 346 826 z "},"ê":{"ha":839,"x_min":65,"x_max":775,"o":"m 442 -17 q 173 90 281 -17 q 65 367 65 197 q 167 638 65 526 q 424 749 268 749 q 683 635 590 749 q 775 354 775 522 q 772 307 775 324 l 233 307 q 304 170 247 219 q 444 121 361 121 q 643 208 553 121 l 742 121 q 442 -17 628 -17 m 232 418 l 608 418 q 551 557 600 503 q 422 611 503 611 q 294 558 346 611 q 232 418 243 504 m 182 826 l 343 1029 l 499 1029 l 660 826 l 526 826 l 419 919 l 313 826 l 182 826 z "},"ë":{"ha":839,"x_min":65,"x_max":775,"o":"m 442 -17 q 173 90 281 -17 q 65 367 65 197 q 167 638 65 526 q 424 749 268 749 q 683 635 590 749 q 775 354 775 522 q 772 307 775 324 l 233 307 q 304 170 247 219 q 444 121 361 121 q 643 208 553 121 l 742 121 q 442 -17 628 -17 m 232 418 l 608 418 q 551 557 600 503 q 422 611 503 611 q 294 558 346 611 q 232 418 243 504 m 474 826 l 474 990 l 644 990 l 644 826 l 474 826 m 197 826 l 197 990 l 368 990 l 368 826 l 197 826 z "},"ì":{"ha":397,"x_min":-29,"x_max":283,"o":"m 115 0 l 115 733 l 283 733 l 283 0 l 115 0 m 140 826 l -29 986 l 124 1054 l 271 826 l 140 826 z "},"í":{"ha":397,"x_min":115,"x_max":426,"o":"m 115 0 l 115 733 l 283 733 l 283 0 l 115 0 m 126 826 l 274 1054 l 426 986 l 257 826 l 126 826 z "},"î":{"ha":397,"x_min":-40,"x_max":438,"o":"m 115 0 l 115 733 l 283 733 l 283 0 l 115 0 m -40 826 l 121 1029 l 276 1029 l 438 826 l 304 826 l 197 919 l 90 826 l -40 826 z "},"ï":{"ha":397,"x_min":-25,"x_max":422,"o":"m 115 0 l 115 733 l 283 733 l 283 0 l 115 0 m 251 826 l 251 990 l 422 990 l 422 826 l 251 826 m -25 826 l -25 990 l 146 990 l 146 826 l -25 826 z "},"ð":{"ha":892,"x_min":65,"x_max":824,"o":"m 439 -17 q 172 89 279 -17 q 65 347 65 194 q 158 583 65 492 q 388 675 250 675 q 581 618 486 675 l 435 817 l 269 743 l 203 831 l 371 904 l 290 1014 l 483 1014 l 517 965 l 654 1025 l 719 938 l 578 876 l 701 697 q 794 527 765 606 q 824 357 824 449 q 719 92 824 201 q 439 -17 614 -17 m 446 126 q 599 189 540 126 q 658 343 658 251 q 597 491 658 431 q 440 551 536 551 q 288 492 346 551 q 231 340 231 432 q 292 189 231 251 q 446 126 353 126 z "},"ñ":{"ha":861,"x_min":106,"x_max":764,"o":"m 106 0 l 106 733 l 274 733 l 274 619 q 503 749 361 749 q 694 672 625 749 q 764 467 764 596 l 764 0 l 596 0 l 596 417 q 555 549 596 503 q 439 596 514 596 q 319 547 365 596 q 274 414 274 499 l 274 0 l 106 0 m 267 813 l 174 840 q 233 972 197 929 q 329 1014 268 1014 q 439 986 371 1014 q 529 958 507 958 q 574 974 558 958 q 606 1028 589 989 l 699 999 q 640 868 675 910 q 543 826 604 826 q 433 854 501 826 q 343 882 365 882 q 299 867 314 882 q 267 813 283 851 z "},"ò":{"ha":913,"x_min":65,"x_max":847,"o":"m 454 -17 q 176 94 288 -17 q 65 365 65 206 q 178 637 65 525 q 457 749 290 749 q 735 638 624 749 q 847 365 847 526 q 735 95 847 207 q 454 -17 622 -17 m 457 129 q 618 197 557 129 q 679 365 679 265 q 615 533 679 464 q 454 601 551 601 q 294 533 356 601 q 233 365 233 465 q 297 199 233 268 q 457 129 361 129 m 390 826 l 221 986 l 374 1054 l 521 826 l 390 826 z "},"ó":{"ha":913,"x_min":65,"x_max":847,"o":"m 454 -17 q 176 94 288 -17 q 65 365 65 206 q 178 637 65 525 q 457 749 290 749 q 735 638 624 749 q 847 365 847 526 q 735 95 847 207 q 454 -17 622 -17 m 457 129 q 618 197 557 129 q 679 365 679 265 q 615 533 679 464 q 454 601 551 601 q 294 533 356 601 q 233 365 233 465 q 297 199 233 268 q 457 129 361 129 m 390 826 l 538 1054 l 690 986 l 521 826 l 390 826 z "},"ô":{"ha":913,"x_min":65,"x_max":847,"o":"m 454 -17 q 176 94 288 -17 q 65 365 65 206 q 178 637 65 525 q 457 749 290 749 q 735 638 624 749 q 847 365 847 526 q 735 95 847 207 q 454 -17 622 -17 m 457 129 q 618 197 557 129 q 679 365 679 265 q 615 533 679 464 q 454 601 551 601 q 294 533 356 601 q 233 365 233 465 q 297 199 233 268 q 457 129 361 129 m 217 826 l 378 1029 l 533 1029 l 694 826 l 561 826 l 454 919 l 347 826 l 217 826 z "},"õ":{"ha":913,"x_min":65,"x_max":847,"o":"m 454 -17 q 176 94 288 -17 q 65 365 65 206 q 178 637 65 525 q 457 749 290 749 q 735 638 624 749 q 847 365 847 526 q 735 95 847 207 q 454 -17 622 -17 m 457 129 q 618 197 557 129 q 679 365 679 265 q 615 533 679 464 q 454 601 551 601 q 294 533 356 601 q 233 365 233 465 q 297 199 233 268 q 457 129 361 129 m 286 813 l 193 840 q 252 972 217 929 q 349 1014 288 1014 q 458 986 390 1014 q 549 958 526 958 q 593 974 578 958 q 625 1028 608 989 l 718 999 q 659 868 694 910 q 563 826 624 826 q 453 854 521 826 q 363 882 385 882 q 318 867 333 882 q 286 813 303 851 z "},"ö":{"ha":913,"x_min":65,"x_max":847,"o":"m 454 -17 q 176 94 288 -17 q 65 365 65 206 q 178 637 65 525 q 457 749 290 749 q 735 638 624 749 q 847 365 847 526 q 735 95 847 207 q 454 -17 622 -17 m 457 129 q 618 197 557 129 q 679 365 679 265 q 615 533 679 464 q 454 601 551 601 q 294 533 356 601 q 233 365 233 465 q 297 199 233 268 q 457 129 361 129 m 508 826 l 508 990 l 679 990 l 679 826 l 508 826 m 232 826 l 232 990 l 403 990 l 403 826 l 232 826 z "},"÷":{"ha":889,"x_min":115,"x_max":772,"o":"m 115 415 l 115 569 l 772 569 l 772 415 l 115 415 m 356 690 l 356 872 l 528 872 l 528 690 l 356 690 m 356 111 l 356 293 l 528 293 l 528 111 l 356 111 z "},"ø":{"ha":913,"x_min":44,"x_max":868,"o":"m 454 -17 q 244 43 339 -17 l 197 -7 l 44 -7 l 156 117 q 65 365 65 222 q 178 637 65 525 q 457 749 290 749 q 667 689 574 749 l 715 742 l 868 742 q 756 615 797 663 q 847 365 847 513 q 735 95 847 207 q 454 -17 622 -17 m 264 239 l 567 572 q 454 606 515 606 q 291 536 353 606 q 229 365 229 467 q 264 239 229 296 m 457 126 q 621 195 558 126 q 683 365 683 264 q 649 493 683 433 l 344 158 q 457 126 393 126 z "},"ù":{"ha":861,"x_min":97,"x_max":756,"o":"m 358 -15 q 167 61 236 -15 q 97 267 97 138 l 97 733 l 265 733 l 265 317 q 306 184 265 231 q 422 138 347 138 q 542 186 496 138 q 588 319 588 235 l 588 733 l 756 733 l 756 0 l 588 0 l 588 114 q 358 -15 500 -15 m 382 825 l 213 985 l 365 1053 l 513 825 l 382 825 z "},"ú":{"ha":861,"x_min":97,"x_max":756,"o":"m 358 -15 q 167 61 236 -15 q 97 267 97 138 l 97 733 l 265 733 l 265 317 q 306 184 265 231 q 422 138 347 138 q 542 186 496 138 q 588 319 588 235 l 588 733 l 756 733 l 756 0 l 588 0 l 588 114 q 358 -15 500 -15 m 346 825 l 493 1053 l 646 985 l 476 825 l 346 825 z "},"û":{"ha":861,"x_min":97,"x_max":756,"o":"m 358 -15 q 167 61 236 -15 q 97 267 97 138 l 97 733 l 265 733 l 265 317 q 306 184 265 231 q 422 138 347 138 q 542 186 496 138 q 588 319 588 235 l 588 733 l 756 733 l 756 0 l 588 0 l 588 114 q 358 -15 500 -15 m 192 826 l 353 1029 l 508 1029 l 669 826 l 536 826 l 429 919 l 322 826 l 192 826 z "},"ü":{"ha":861,"x_min":97,"x_max":756,"o":"m 358 -15 q 167 61 236 -15 q 97 267 97 138 l 97 733 l 265 733 l 265 317 q 306 184 265 231 q 422 138 347 138 q 542 186 496 138 q 588 319 588 235 l 588 733 l 756 733 l 756 0 l 588 0 l 588 114 q 358 -15 500 -15 m 483 826 l 483 990 l 654 990 l 654 826 l 483 826 m 207 826 l 207 990 l 378 990 l 378 826 l 207 826 z "},"ý":{"ha":828,"x_min":36,"x_max":789,"o":"m 256 -226 q 82 -182 164 -226 l 139 -57 q 238 -85 190 -85 q 297 -66 274 -85 q 342 0 321 -47 l 36 733 l 215 733 l 424 189 l 614 733 l 789 733 l 497 -21 q 399 -180 453 -133 q 256 -226 344 -226 m 339 825 l 486 1053 l 639 985 l 469 825 l 339 825 z "},"þ":{"ha":931,"x_min":106,"x_max":864,"o":"m 106 -222 l 106 1014 l 274 1014 l 274 611 q 522 749 371 749 q 763 645 661 749 q 864 365 864 542 q 763 88 864 192 q 522 -15 661 -15 q 274 114 371 -15 l 274 -222 l 106 -222 m 483 131 q 633 196 572 131 q 693 368 693 261 q 632 538 693 472 q 483 603 571 603 q 333 536 396 603 q 269 365 269 469 q 333 197 269 263 q 483 131 396 131 z "},"ÿ":{"ha":828,"x_min":36,"x_max":789,"o":"m 256 -226 q 82 -182 164 -226 l 139 -57 q 238 -85 190 -85 q 297 -66 274 -85 q 342 0 321 -47 l 36 733 l 215 733 l 424 189 l 614 733 l 789 733 l 497 -21 q 399 -180 453 -133 q 256 -226 344 -226 m 467 826 l 467 990 l 638 990 l 638 826 l 467 826 m 190 826 l 190 990 l 361 990 l 361 826 l 190 826 z "},"ı":{"ha":397,"x_min":115,"x_max":283,"o":"m 115 0 l 115 733 l 283 733 l 283 0 l 115 0 z "},"Ł":{"ha":901,"x_min":63,"x_max":849,"o":"m 167 0 l 167 386 l 63 356 l 63 514 l 167 546 l 167 972 l 336 972 l 336 597 l 617 681 l 617 522 l 336 438 l 336 156 l 849 156 l 849 0 l 167 0 z "},"ł":{"ha":481,"x_min":51,"x_max":429,"o":"m 157 0 l 157 413 l 51 381 l 51 540 l 157 572 l 157 1014 l 324 1014 l 324 621 l 429 653 l 429 493 l 324 461 l 324 0 l 157 0 z "},"Œ":{"ha":1525,"x_min":82,"x_max":1447,"o":"m 599 0 q 226 138 371 0 q 82 486 82 276 q 227 833 82 694 q 599 972 372 972 l 1440 972 l 1440 819 l 921 819 l 921 567 l 1378 567 l 1378 414 l 921 414 l 921 153 l 1447 153 l 1447 0 l 599 0 m 599 156 l 750 156 l 750 817 l 599 817 q 354 724 447 817 q 261 486 261 632 q 354 249 261 342 q 599 156 447 156 z "},"œ":{"ha":1444,"x_min":65,"x_max":1379,"o":"m 446 -17 q 176 95 288 -17 q 65 365 65 207 q 178 636 65 524 q 453 749 290 749 q 621 708 544 749 q 746 597 697 667 q 867 708 793 668 q 1029 749 940 749 q 1288 635 1196 749 q 1379 354 1379 522 q 1376 307 1379 335 l 838 307 q 909 170 851 219 q 1049 121 967 121 q 1249 208 1158 121 l 1347 121 q 1047 -17 1231 -17 q 874 24 953 -17 q 744 138 794 65 q 617 25 696 67 q 446 -17 539 -17 m 836 418 l 1214 418 q 1156 558 1204 504 q 1028 611 1108 611 q 899 558 951 611 q 836 418 847 504 m 453 129 q 610 197 550 129 q 669 365 669 265 q 607 533 669 464 q 450 601 544 601 q 294 533 354 601 q 233 365 233 464 q 296 199 233 268 q 453 129 358 129 z "},"Š":{"ha":889,"x_min":60,"x_max":813,"o":"m 465 -14 q 60 142 233 -14 l 163 264 q 469 138 308 138 q 595 172 549 138 q 642 263 642 206 q 597 349 642 317 q 422 413 553 382 q 176 515 253 453 q 99 704 99 576 q 192 908 99 829 q 431 986 285 986 q 783 864 631 986 l 692 735 q 428 835 557 835 q 312 801 354 835 q 269 717 269 768 q 316 628 269 660 q 500 564 363 597 q 737 460 661 525 q 813 276 813 394 q 717 64 813 142 q 465 -14 621 -14 m 367 1053 l 206 1256 l 339 1256 l 446 1164 l 553 1256 l 683 1256 l 522 1053 l 367 1053 z "},"š":{"ha":694,"x_min":46,"x_max":629,"o":"m 357 -14 q 46 96 185 -14 l 121 210 q 361 119 240 119 q 445 141 415 119 q 475 201 475 163 q 465 235 475 221 q 428 263 454 250 q 383 281 401 275 q 324 299 365 286 l 311 303 q 245 324 272 314 q 185 353 218 335 q 131 392 151 371 q 96 447 110 414 q 82 522 82 481 q 156 685 82 624 q 343 746 231 746 q 613 663 486 746 l 546 543 q 339 613 432 613 q 263 592 290 613 q 236 536 236 571 q 260 493 236 513 q 309 465 285 474 q 388 438 333 456 q 394 435 390 436 q 401 433 399 433 q 483 403 450 418 q 553 364 517 389 q 610 302 590 339 q 629 217 629 265 q 553 46 629 106 q 357 -14 476 -14 m 275 826 l 114 1029 l 247 1029 l 354 938 l 461 1029 l 592 1029 l 431 826 l 275 826 z "},"Ÿ":{"ha":994,"x_min":25,"x_max":969,"o":"m 411 0 l 411 383 l 25 972 l 226 972 l 499 542 l 774 972 l 969 972 l 583 388 l 583 0 l 411 0 m 550 1051 l 550 1215 l 721 1215 l 721 1051 l 550 1051 m 274 1051 l 274 1215 l 444 1215 l 444 1051 l 274 1051 z "},"Ž":{"ha":975,"x_min":90,"x_max":886,"o":"m 90 0 l 90 126 l 664 821 l 108 821 l 108 972 l 886 972 l 886 846 l 313 151 l 886 151 l 886 0 l 90 0 m 415 1053 l 254 1256 l 388 1256 l 494 1164 l 601 1256 l 732 1256 l 571 1053 l 415 1053 z "},"ž":{"ha":778,"x_min":72,"x_max":710,"o":"m 72 0 l 72 115 l 496 596 l 88 596 l 88 733 l 710 733 l 710 618 l 286 138 l 710 138 l 710 0 l 72 0 m 322 826 l 161 1029 l 294 1029 l 401 938 l 508 1029 l 639 1029 l 478 826 l 322 826 z "},"ƒ":{"ha":732,"x_min":57,"x_max":682,"o":"m 135 -7 q 57 0 85 -7 l 57 138 q 113 132 81 132 q 181 154 157 132 q 214 226 204 176 l 263 494 l 151 494 l 151 635 l 286 635 l 311 764 q 388 926 332 872 q 554 979 444 979 q 682 963 631 979 l 682 824 q 586 838 626 838 q 510 812 538 838 q 474 729 483 786 l 457 635 l 633 635 l 633 494 l 432 494 l 379 201 q 301 42 360 92 q 135 -7 242 -7 z "},"ˆ":{"ha":694,"x_min":108,"x_max":586,"o":"m 108 826 l 269 1029 l 425 1029 l 586 826 l 453 826 l 346 919 l 239 826 l 108 826 z "},"ˇ":{"ha":694,"x_min":108,"x_max":586,"o":"m 269 826 l 108 1029 l 242 1029 l 349 938 l 456 1029 l 586 1029 l 425 826 l 269 826 z "},"˘":{"ha":694,"x_min":110,"x_max":585,"o":"m 513 878 q 481 851 513 878 q 347 824 449 824 q 181 878 246 824 q 110 1029 117 932 l 225 1029 q 347 942 253 942 q 469 1029 442 942 l 585 1029 q 513 878 578 932 z "},"˙":{"ha":694,"x_min":260,"x_max":435,"o":"m 260 826 l 260 992 l 435 992 l 435 826 l 260 826 z "},"˚":{"ha":694,"x_min":189,"x_max":506,"o":"m 458 869 q 434 846 458 869 q 347 824 410 824 q 237 869 285 824 q 189 978 189 915 q 237 1084 189 1039 q 347 1129 285 1129 q 458 1083 410 1129 q 506 975 506 1038 q 458 869 506 914 m 347 890 q 408 916 383 890 q 433 978 433 942 q 408 1038 433 1013 q 347 1063 382 1063 q 286 1037 311 1063 q 261 975 261 1011 q 287 915 261 940 q 347 890 313 890 z "},"˛":{"ha":694,"x_min":244,"x_max":508,"o":"m 508 -228 q 313 -196 382 -236 q 244 -78 244 -156 q 265 14 244 -36 l 385 14 q 376 -47 376 -17 q 508 -150 376 -142 l 508 -228 z "},"˜":{"ha":694,"x_min":85,"x_max":610,"o":"m 178 813 l 85 840 q 144 972 108 929 q 240 1014 179 1014 q 350 986 282 1014 q 440 958 418 958 q 485 974 469 958 q 517 1028 500 989 l 610 999 q 551 868 586 910 q 454 826 515 826 q 344 854 413 826 q 254 882 276 882 q 210 867 225 882 q 178 813 194 851 z "},"˝":{"ha":694,"x_min":78,"x_max":625,"o":"m 331 826 l 478 1054 l 625 986 l 456 826 l 331 826 m 78 826 l 222 1054 l 369 986 l 203 826 l 78 826 z "},"Ω":{"ha":1092,"x_min":94,"x_max":994,"o":"m 94 0 l 94 139 l 347 139 l 347 206 q 161 338 228 238 q 94 567 94 439 q 226 870 94 754 q 549 986 357 986 q 865 871 736 986 q 994 568 994 756 q 928 338 994 440 q 743 206 863 236 l 743 139 l 994 139 l 994 0 l 615 0 l 615 278 q 772 372 718 297 q 825 554 825 447 q 747 758 825 676 q 547 840 669 840 q 345 757 424 840 q 267 551 267 674 q 321 370 267 446 q 475 278 375 294 l 475 0 l 94 0 z "},"π":{"ha":694,"x_min":0,"x_max":694,"o":"m 0 0 l 0 972 l 694 972 l 694 0 l 0 0 m 113 68 l 583 68 l 347 422 l 113 68 m 68 133 l 306 486 l 68 839 l 68 133 m 625 133 l 625 839 l 388 486 l 625 133 m 347 549 l 583 903 l 113 903 l 347 549 z "},"Ё":{"ha":931,"x_min":125,"x_max":853,"o":"m 538 1053 l 538 1217 l 708 1217 l 708 1053 l 538 1053 m 261 1053 l 261 1217 l 432 1217 l 432 1053 l 261 1053 m 125 0 l 125 972 l 846 972 l 846 819 l 296 819 l 296 567 l 783 567 l 783 414 l 296 414 l 296 153 l 853 153 l 853 0 l 125 0 z "},"Ђ":{"ha":1214,"x_min":53,"x_max":1113,"o":"m 783 -22 q 636 3 708 -22 l 668 153 q 749 140 706 140 q 883 181 831 140 q 936 310 936 221 q 885 432 936 389 q 746 475 835 475 q 497 381 603 475 l 497 0 l 326 0 l 326 818 l 53 818 l 53 972 l 854 972 l 854 818 l 497 818 l 497 546 q 783 639 628 639 q 1022 553 931 639 q 1113 314 1113 467 q 1022 65 1113 151 q 783 -22 932 -22 z "},"Ѓ":{"ha":825,"x_min":125,"x_max":779,"o":"m 324 1053 l 471 1281 l 624 1213 l 454 1053 l 324 1053 m 125 0 l 125 972 l 779 972 l 779 818 l 294 818 l 294 0 l 125 0 z "},"Є":{"ha":1022,"x_min":82,"x_max":975,"o":"m 575 -17 q 223 128 364 -17 q 82 486 82 274 q 224 842 82 696 q 582 989 365 989 q 790 949 704 989 q 954 836 875 910 l 857 719 q 581 835 728 835 q 374 758 461 835 q 265 563 288 682 l 701 563 l 701 417 l 264 417 q 372 215 283 294 q 581 136 460 136 q 731 167 667 136 q 865 263 796 199 l 975 150 q 801 25 896 67 q 575 -17 707 -17 z "},"Ѕ":{"ha":889,"x_min":60,"x_max":813,"o":"m 465 -14 q 60 142 233 -14 l 163 264 q 469 138 308 138 q 595 172 549 138 q 642 263 642 206 q 597 349 642 317 q 422 413 553 382 q 176 515 253 453 q 99 704 99 576 q 192 908 99 829 q 431 986 285 986 q 783 864 631 986 l 692 735 q 428 835 557 835 q 312 801 354 835 q 269 717 269 768 q 316 628 269 660 q 500 564 363 597 q 737 460 661 525 q 813 276 813 394 q 717 64 813 142 q 465 -14 621 -14 z "},"І":{"ha":440,"x_min":135,"x_max":306,"o":"m 135 0 l 135 972 l 306 972 l 306 0 l 135 0 z "},"Ї":{"ha":440,"x_min":-3,"x_max":444,"o":"m 274 1053 l 274 1217 l 444 1217 l 444 1053 l 274 1053 m -3 1053 l -3 1217 l 168 1217 l 168 1053 l -3 1053 m 135 0 l 135 972 l 306 972 l 306 0 l 135 0 z "},"Ј":{"ha":776,"x_min":29,"x_max":667,"o":"m 340 -14 q 29 143 144 -14 l 142 258 q 338 144 232 144 q 450 192 408 144 q 492 335 492 240 l 492 972 l 667 972 l 667 331 q 576 72 667 163 q 340 -14 490 -14 z "},"Љ":{"ha":1572,"x_min":7,"x_max":1518,"o":"m 125 -11 q 7 4 65 -11 l 24 144 q 79 136 49 136 q 137 147 113 136 q 188 196 161 157 q 231 302 215 235 q 258 490 247 369 q 269 781 269 611 l 269 972 l 931 972 l 931 622 l 1154 622 q 1419 542 1321 622 q 1518 318 1518 463 q 1419 85 1518 171 q 1153 0 1321 0 l 760 0 l 760 818 l 429 818 l 429 731 q 410 358 429 507 q 349 131 390 210 q 254 20 307 51 q 125 -11 201 -11 m 931 153 l 1150 153 q 1297 195 1246 153 q 1349 319 1349 238 q 1296 434 1349 394 q 1146 474 1243 474 l 931 474 l 931 153 z "},"Њ":{"ha":1571,"x_min":125,"x_max":1517,"o":"m 125 0 l 125 972 l 294 972 l 294 592 l 758 592 l 758 972 l 929 972 l 929 592 l 1172 592 q 1424 515 1331 592 q 1517 301 1517 439 q 1423 80 1517 160 q 1164 0 1329 0 l 758 0 l 758 446 l 294 446 l 294 0 l 125 0 m 929 153 l 1157 153 q 1346 307 1346 153 q 1154 449 1346 449 l 929 449 l 929 153 z "},"Ћ":{"ha":1214,"x_min":53,"x_max":1113,"o":"m 328 0 l 328 818 l 53 818 l 53 972 l 854 972 l 854 818 l 497 818 l 497 540 q 783 633 631 633 q 1022 555 931 633 q 1113 335 1113 476 l 1113 0 l 943 0 l 943 272 q 893 417 943 365 q 753 469 843 469 q 497 372 604 469 l 497 0 l 328 0 z "},"Ќ":{"ha":1007,"x_min":125,"x_max":986,"o":"m 425 1053 l 572 1281 l 725 1213 l 556 1053 l 425 1053 m 125 0 l 125 972 l 296 972 l 296 483 l 758 972 l 968 972 l 564 554 l 986 0 l 779 0 l 447 438 l 296 282 l 296 0 l 125 0 z "},"Ў":{"ha":1017,"x_min":35,"x_max":981,"o":"m 674 1101 q 644 1075 674 1101 q 528 1049 615 1049 q 382 1101 440 1049 q 308 1243 324 1153 l 413 1263 q 528 1168 439 1168 q 643 1263 614 1168 l 746 1243 q 674 1101 732 1153 m 293 -15 q 103 33 193 -15 l 168 161 q 288 131 222 131 q 440 236 375 131 l 35 972 l 226 972 l 529 407 l 796 972 l 981 972 l 601 213 q 293 -15 489 -15 z "},"Џ":{"ha":1043,"x_min":124,"x_max":917,"o":"m 439 -208 l 439 0 l 124 0 l 124 972 l 293 972 l 293 154 l 747 154 l 747 972 l 917 972 l 917 0 l 604 0 l 604 -208 l 439 -208 z "},"А":{"ha":1097,"x_min":42,"x_max":1056,"o":"m 42 0 l 469 979 l 628 979 l 1056 0 l 875 0 l 776 235 l 317 235 l 217 0 l 42 0 m 379 386 l 714 386 l 546 775 l 379 386 z "},"Б":{"ha":986,"x_min":125,"x_max":918,"o":"m 125 0 l 125 972 l 850 972 l 850 818 l 294 818 l 294 594 l 565 594 q 823 517 728 594 q 918 300 918 439 q 822 78 918 156 q 557 0 726 0 l 125 0 m 294 153 l 519 153 q 692 187 636 153 q 747 307 747 221 q 550 450 747 450 l 294 450 l 294 153 z "},"В":{"ha":1003,"x_min":125,"x_max":935,"o":"m 125 0 l 125 972 l 561 972 q 815 886 729 972 q 881 722 881 821 q 742 506 881 578 q 935 267 935 440 q 838 69 935 139 q 575 0 740 0 l 125 0 m 293 563 l 526 563 q 660 597 611 563 q 710 697 710 631 q 665 788 710 756 q 539 821 621 821 l 293 821 l 293 563 m 293 151 l 576 151 q 715 186 665 151 q 764 288 764 221 q 564 418 764 418 l 293 418 l 293 151 z "},"Г":{"ha":825,"x_min":125,"x_max":779,"o":"m 125 0 l 125 972 l 779 972 l 779 818 l 294 818 l 294 0 l 125 0 z "},"Д":{"ha":1058,"x_min":14,"x_max":1031,"o":"m 14 -208 l 14 153 l 108 153 q 232 835 232 397 l 232 972 l 910 972 l 910 153 l 1031 153 l 1007 -208 l 865 -208 l 865 0 l 181 0 l 164 -208 l 14 -208 m 290 153 l 739 153 l 739 818 l 396 818 l 396 707 q 290 153 396 367 z "},"Е":{"ha":931,"x_min":125,"x_max":853,"o":"m 125 0 l 125 972 l 846 972 l 846 819 l 296 819 l 296 567 l 783 567 l 783 414 l 296 414 l 296 153 l 853 153 l 853 0 l 125 0 z "},"Ж":{"ha":1508,"x_min":21,"x_max":1488,"o":"m 839 0 l 669 0 l 669 258 l 517 432 l 226 0 l 21 0 l 404 558 l 40 972 l 244 972 l 669 467 l 669 972 l 839 972 l 839 467 l 1264 972 l 1468 972 l 1103 558 l 1488 0 l 1282 0 l 992 432 l 839 258 l 839 0 z "},"З":{"ha":897,"x_min":44,"x_max":822,"o":"m 456 989 q 701 915 606 989 q 797 728 797 842 q 632 501 797 571 q 771 417 719 475 q 822 268 822 358 q 724 64 822 144 q 465 -17 625 -17 q 228 23 328 -17 q 44 143 129 63 l 138 261 q 461 132 274 132 q 597 172 542 132 q 651 278 651 211 q 590 385 651 350 q 429 419 529 419 l 319 419 l 319 561 l 428 561 q 575 598 522 561 q 628 703 628 635 q 577 801 628 764 q 444 839 526 839 q 172 731 285 839 l 81 842 q 456 989 235 989 z "},"И":{"ha":1071,"x_min":125,"x_max":944,"o":"m 125 0 l 125 972 l 293 972 l 293 263 l 785 972 l 944 972 l 944 0 l 776 0 l 776 708 l 286 0 l 125 0 z "},"Й":{"ha":1071,"x_min":125,"x_max":944,"o":"m 686 1101 q 657 1075 686 1101 q 540 1049 628 1049 q 394 1101 453 1049 q 321 1243 336 1153 l 425 1263 q 540 1168 451 1168 q 656 1263 626 1168 l 758 1243 q 686 1101 744 1153 m 125 0 l 125 972 l 293 972 l 293 263 l 785 972 l 944 972 l 944 0 l 776 0 l 776 708 l 286 0 l 125 0 z "},"К":{"ha":1007,"x_min":125,"x_max":986,"o":"m 125 0 l 125 972 l 296 972 l 296 483 l 758 972 l 968 972 l 564 554 l 986 0 l 779 0 l 447 438 l 296 282 l 296 0 l 125 0 z "},"Л":{"ha":1063,"x_min":7,"x_max":936,"o":"m 125 -11 q 7 4 65 -11 l 24 144 q 79 136 49 136 q 137 147 113 136 q 188 196 161 157 q 231 302 215 235 q 258 490 247 369 q 269 781 269 611 l 269 972 l 936 972 l 936 0 l 765 0 l 765 818 l 429 818 l 429 731 q 410 355 429 504 q 349 127 390 206 q 255 19 307 49 q 125 -11 203 -11 z "},"М":{"ha":1206,"x_min":125,"x_max":1081,"o":"m 125 0 l 125 972 l 307 972 l 603 513 l 899 972 l 1081 972 l 1081 0 l 910 0 l 910 697 l 603 239 l 597 239 l 293 694 l 293 0 l 125 0 z "},"Н":{"ha":1056,"x_min":125,"x_max":931,"o":"m 125 0 l 125 972 l 296 972 l 296 568 l 760 568 l 760 972 l 931 972 l 931 0 l 760 0 l 760 410 l 296 410 l 296 0 l 125 0 z "},"О":{"ha":1181,"x_min":82,"x_max":1099,"o":"m 954 131 q 882 57 954 131 q 589 -17 810 -17 q 225 129 368 -17 q 82 486 82 275 q 226 842 82 694 q 592 989 371 989 q 956 843 813 989 q 1099 486 1099 697 q 954 131 1099 278 m 355 241 q 402 191 355 241 q 592 140 449 140 q 827 240 735 140 q 919 486 919 340 q 826 731 919 631 q 589 832 732 832 q 353 732 446 832 q 261 486 261 632 q 355 241 261 342 z "},"П":{"ha":1043,"x_min":125,"x_max":918,"o":"m 125 0 l 125 972 l 918 972 l 918 0 l 747 0 l 747 818 l 296 818 l 296 0 l 125 0 z "},"Р":{"ha":928,"x_min":125,"x_max":878,"o":"m 125 0 l 125 972 l 508 972 q 778 883 678 972 q 878 644 878 794 q 767 400 878 488 q 489 313 657 313 l 296 313 l 296 0 l 125 0 m 296 467 l 494 467 q 647 515 590 467 q 704 643 704 564 q 648 772 704 726 q 494 817 592 817 l 296 817 l 296 467 z "},"С":{"ha":1025,"x_min":82,"x_max":971,"o":"m 576 -17 q 224 128 365 -17 q 82 486 82 274 q 224 843 82 697 q 583 989 365 989 q 798 950 710 989 q 964 838 886 911 l 854 711 q 582 832 724 832 q 352 732 443 832 q 261 486 261 632 q 353 241 261 342 q 582 140 444 140 q 729 172 665 140 q 861 267 793 203 l 971 156 q 797 26 889 69 q 576 -17 706 -17 z "},"Т":{"ha":900,"x_min":56,"x_max":844,"o":"m 364 0 l 364 814 l 56 814 l 56 972 l 844 972 l 844 814 l 536 814 l 536 0 l 364 0 z "},"У":{"ha":1017,"x_min":35,"x_max":981,"o":"m 293 -15 q 103 33 193 -15 l 168 161 q 288 131 222 131 q 440 236 375 131 l 35 972 l 226 972 l 529 407 l 796 972 l 981 972 l 601 213 q 293 -15 489 -15 z "},"Ф":{"ha":1274,"x_min":65,"x_max":1207,"o":"m 551 -37 l 551 68 q 196 186 326 68 q 65 494 65 304 q 196 799 65 683 q 551 915 326 915 l 551 1007 l 721 1007 l 721 915 q 1076 799 946 915 q 1207 493 1207 682 q 1077 186 1207 304 q 721 68 947 68 l 721 -37 l 551 -37 m 551 219 l 551 763 q 324 690 407 763 q 240 492 240 618 q 324 292 240 364 q 551 219 407 219 m 721 219 q 949 291 867 219 q 1032 492 1032 363 q 949 690 1032 618 q 721 763 865 763 l 721 219 z "},"Х":{"ha":1013,"x_min":51,"x_max":961,"o":"m 51 0 l 406 494 l 65 972 l 267 972 l 508 624 l 751 972 l 947 972 l 608 497 l 961 0 l 760 0 l 504 368 l 247 0 l 51 0 z "},"Ц":{"ha":1069,"x_min":125,"x_max":1042,"o":"m 876 -208 l 876 0 l 125 0 l 125 972 l 296 972 l 296 154 l 751 154 l 751 972 l 921 972 l 921 154 l 1042 154 l 1018 -208 l 876 -208 z "},"Ч":{"ha":992,"x_min":99,"x_max":867,"o":"m 696 0 l 696 385 q 419 303 539 303 q 185 381 272 303 q 99 613 99 460 l 99 972 l 269 972 l 269 656 q 315 512 269 563 q 450 461 361 461 q 696 538 582 461 l 696 972 l 867 972 l 867 0 l 696 0 z "},"Ш":{"ha":1524,"x_min":125,"x_max":1399,"o":"m 125 0 l 125 972 l 294 972 l 294 153 l 676 153 l 676 972 l 847 972 l 847 153 l 1229 153 l 1229 972 l 1399 972 l 1399 0 l 125 0 z "},"Щ":{"ha":1547,"x_min":125,"x_max":1519,"o":"m 1356 -208 l 1356 0 l 125 0 l 125 972 l 296 972 l 296 154 l 678 154 l 678 972 l 847 972 l 847 154 l 1229 154 l 1229 972 l 1400 972 l 1400 154 l 1519 154 l 1496 -208 l 1356 -208 z "},"Ъ":{"ha":1104,"x_min":49,"x_max":1050,"o":"m 292 0 l 292 818 l 49 818 l 49 972 l 461 972 l 461 622 l 685 622 q 951 542 851 622 q 1050 318 1050 463 q 951 85 1050 171 q 683 0 853 0 l 292 0 m 461 153 l 681 153 q 828 195 776 153 q 881 319 881 238 q 828 434 881 394 q 676 474 775 474 l 461 474 l 461 153 z "},"Ы":{"ha":1293,"x_min":125,"x_max":1168,"o":"m 125 0 l 125 972 l 294 972 l 294 622 l 518 622 q 784 542 685 622 q 883 318 883 463 q 785 85 883 171 q 517 0 686 0 l 125 0 m 294 153 l 514 153 q 662 195 610 153 q 714 319 714 238 q 661 434 714 394 q 511 474 608 474 l 294 474 l 294 153 m 999 0 l 999 972 l 1168 972 l 1168 0 l 999 0 z "},"Ь":{"ha":938,"x_min":125,"x_max":883,"o":"m 125 0 l 125 972 l 294 972 l 294 622 l 518 622 q 784 542 685 622 q 883 318 883 463 q 785 85 883 171 q 517 0 686 0 l 125 0 m 294 153 l 514 153 q 662 195 610 153 q 714 319 714 238 q 661 434 714 394 q 511 474 608 474 l 294 474 l 294 153 z "},"Э":{"ha":1019,"x_min":44,"x_max":938,"o":"m 444 -17 q 218 25 313 -17 q 44 150 124 67 l 154 263 q 288 167 224 199 q 439 136 353 136 q 649 215 561 136 q 756 417 736 294 l 319 417 l 319 563 l 754 563 q 645 758 732 682 q 439 835 558 835 q 163 719 292 835 l 65 836 q 230 949 143 910 q 438 989 317 989 q 796 842 654 989 q 938 486 938 696 q 797 128 938 274 q 444 -17 656 -17 z "},"Ю":{"ha":1469,"x_min":125,"x_max":1388,"o":"m 918 -17 q 606 104 732 -17 q 456 413 479 225 l 296 413 l 296 0 l 125 0 l 125 972 l 296 972 l 296 565 l 457 565 q 609 869 482 749 q 921 989 736 989 q 1256 844 1125 989 q 1388 486 1388 700 q 1256 128 1388 274 q 918 -17 1124 -17 m 710 238 q 752 188 710 238 q 921 138 793 138 q 1131 237 1049 138 q 1213 486 1213 336 q 1129 733 1213 633 q 918 833 1046 833 q 709 735 790 833 q 628 486 628 636 q 710 238 628 339 z "},"Я":{"ha":1003,"x_min":50,"x_max":878,"o":"m 50 0 l 315 365 q 146 470 208 394 q 83 663 83 546 q 181 888 83 804 q 446 972 278 972 l 878 972 l 878 0 l 708 0 l 708 336 l 493 336 l 251 0 l 50 0 m 457 485 l 708 485 l 708 818 l 460 818 q 310 774 364 818 q 256 651 256 731 q 310 530 256 575 q 457 485 365 485 z "},"а":{"ha":815,"x_min":56,"x_max":721,"o":"m 721 0 l 554 0 l 554 90 q 317 -15 465 -15 q 131 45 207 -15 q 56 214 56 106 q 138 393 56 332 q 353 454 219 454 q 556 424 460 454 l 556 438 q 509 554 556 514 q 375 594 463 594 q 165 549 275 594 l 119 683 q 399 744 256 744 q 640 664 558 744 q 721 435 721 583 l 721 0 m 558 265 l 558 307 q 390 336 483 336 q 267 306 311 336 q 222 219 222 275 q 263 140 222 169 q 364 111 303 111 q 503 154 449 111 q 558 265 558 197 z "},"б":{"ha":908,"x_min":83,"x_max":843,"o":"m 464 129 q 616 194 557 129 q 675 354 675 258 q 613 515 675 449 q 461 581 551 581 q 310 515 369 581 q 251 354 251 450 q 313 194 251 260 q 464 129 374 129 m 461 -17 q 183 96 283 -17 q 83 411 83 208 q 87 526 83 476 q 100 633 90 575 q 130 733 110 690 q 181 816 150 776 q 262 883 213 856 q 376 924 311 910 l 776 1007 l 804 872 l 404 785 q 261 710 304 764 q 211 576 218 657 q 316 673 244 632 q 493 714 388 714 q 740 610 636 714 q 843 357 843 507 q 734 93 843 203 q 461 -17 625 -17 z "},"в":{"ha":819,"x_min":106,"x_max":757,"o":"m 106 0 l 106 733 l 482 733 q 658 684 592 733 q 724 550 724 635 q 606 382 724 435 q 757 199 757 339 q 684 53 757 106 q 486 0 611 0 l 106 0 m 271 133 l 461 133 q 553 159 521 133 q 586 228 586 185 q 552 293 586 269 q 453 317 518 317 l 271 317 l 271 133 m 271 431 l 443 431 q 524 456 494 431 q 553 521 553 481 q 526 581 553 558 q 446 604 500 604 l 271 604 l 271 431 z "},"г":{"ha":653,"x_min":106,"x_max":625,"o":"m 106 0 l 106 733 l 625 733 l 625 589 l 274 589 l 274 0 l 106 0 z "},"д":{"ha":889,"x_min":21,"x_max":854,"o":"m 21 -176 l 21 144 l 100 144 q 182 643 182 308 l 182 733 l 750 733 l 750 144 l 854 144 l 832 -176 l 692 -176 l 692 0 l 178 0 l 161 -176 l 21 -176 m 272 144 l 582 144 l 582 589 l 340 589 l 340 492 q 272 144 340 288 z "},"е":{"ha":839,"x_min":65,"x_max":775,"o":"m 442 -17 q 173 90 281 -17 q 65 367 65 197 q 167 638 65 526 q 424 749 268 749 q 683 635 590 749 q 775 354 775 522 q 772 307 775 324 l 233 307 q 304 170 247 219 q 444 121 361 121 q 643 208 553 121 l 742 121 q 442 -17 628 -17 m 232 418 l 608 418 q 551 557 600 503 q 422 611 503 611 q 294 558 346 611 q 232 418 243 504 z "},"ж":{"ha":1215,"x_min":13,"x_max":1203,"o":"m 13 0 l 300 425 l 24 733 l 219 733 l 524 374 l 524 733 l 692 733 l 692 374 l 997 733 l 1193 733 l 917 425 l 1203 0 l 1014 0 l 804 313 l 692 185 l 692 0 l 524 0 l 524 185 l 411 313 l 201 0 l 13 0 z "},"з":{"ha":719,"x_min":35,"x_max":650,"o":"m 356 -17 q 35 96 167 -17 l 114 207 q 344 119 217 119 q 443 148 403 119 q 483 221 483 176 q 444 288 483 263 q 335 313 406 313 l 244 313 l 244 433 l 335 433 q 428 460 393 433 q 464 529 464 488 q 430 590 464 567 q 343 613 396 613 q 135 538 221 613 l 60 643 q 358 749 181 749 q 556 693 479 749 q 632 551 632 638 q 517 385 632 435 q 650 207 650 338 q 568 48 650 113 q 356 -17 486 -17 z "},"и":{"ha":881,"x_min":106,"x_max":775,"o":"m 106 0 l 106 733 l 269 733 l 269 242 q 617 733 500 569 l 775 733 l 775 0 l 613 0 l 613 489 l 264 0 l 106 0 z "},"й":{"ha":881,"x_min":106,"x_max":775,"o":"m 587 870 q 558 844 587 870 q 442 818 529 818 q 296 870 354 818 q 224 1011 238 922 l 326 1031 q 442 936 356 936 q 557 1031 528 936 l 658 1011 q 587 870 644 922 m 106 0 l 106 733 l 269 733 l 269 242 q 617 733 500 569 l 775 733 l 775 0 l 613 0 l 613 489 l 264 0 l 106 0 z "},"к":{"ha":824,"x_min":106,"x_max":813,"o":"m 106 0 l 106 733 l 272 733 l 272 382 l 592 733 l 789 733 l 504 425 l 813 0 l 614 0 l 392 303 l 272 176 l 272 0 l 106 0 z "},"л":{"ha":865,"x_min":1,"x_max":760,"o":"m 100 -8 q 1 1 60 -8 l 14 139 q 63 133 36 133 q 110 142 92 133 q 149 184 129 150 q 181 281 169 218 q 199 456 192 343 q 206 733 206 569 l 760 733 l 760 0 l 592 0 l 592 589 l 363 589 q 350 322 363 432 q 317 149 338 213 q 262 49 297 85 q 190 3 226 14 q 100 -8 154 -8 z "},"м":{"ha":1004,"x_min":106,"x_max":899,"o":"m 106 0 l 106 733 l 272 733 l 501 393 l 732 733 l 899 733 l 899 0 l 729 0 l 729 489 l 499 160 l 269 486 l 269 0 l 106 0 z "},"н":{"ha":871,"x_min":106,"x_max":765,"o":"m 106 0 l 106 733 l 274 733 l 274 436 l 597 436 l 597 733 l 765 733 l 765 0 l 597 0 l 597 296 l 274 296 l 274 0 l 106 0 z "},"о":{"ha":913,"x_min":65,"x_max":847,"o":"m 454 -17 q 176 94 288 -17 q 65 365 65 206 q 178 637 65 525 q 457 749 290 749 q 735 638 624 749 q 847 365 847 526 q 735 95 847 207 q 454 -17 622 -17 m 457 129 q 618 197 557 129 q 679 365 679 265 q 615 533 679 464 q 454 601 551 601 q 294 533 356 601 q 233 365 233 465 q 297 199 233 268 q 457 129 361 129 z "},"п":{"ha":865,"x_min":106,"x_max":760,"o":"m 106 0 l 106 733 l 760 733 l 760 0 l 592 0 l 592 589 l 274 589 l 274 0 l 106 0 z "},"р":{"ha":931,"x_min":106,"x_max":864,"o":"m 106 -222 l 106 733 l 274 733 l 274 611 q 522 749 371 749 q 763 645 661 749 q 864 365 864 542 q 763 88 864 192 q 522 -15 661 -15 q 274 114 371 -15 l 274 -222 l 106 -222 m 483 131 q 633 196 572 131 q 693 368 693 261 q 632 538 693 472 q 483 603 571 603 q 333 536 396 603 q 269 365 269 469 q 333 197 269 263 q 483 131 396 131 z "},"с":{"ha":786,"x_min":65,"x_max":744,"o":"m 444 -17 q 174 94 282 -17 q 65 363 65 204 l 65 365 q 174 636 65 524 q 446 749 283 749 q 739 622 624 749 l 635 510 q 444 601 547 601 q 294 533 354 601 q 233 368 233 465 l 233 365 q 295 197 233 265 q 453 129 357 129 q 643 221 554 129 l 744 121 q 615 19 685 54 q 444 -17 544 -17 z "},"т":{"ha":696,"x_min":26,"x_max":668,"o":"m 263 0 l 263 589 l 26 589 l 26 733 l 668 733 l 668 589 l 432 589 l 432 0 l 263 0 z "},"у":{"ha":828,"x_min":36,"x_max":789,"o":"m 256 -226 q 82 -182 164 -226 l 139 -57 q 238 -85 190 -85 q 297 -66 274 -85 q 342 0 321 -47 l 36 733 l 215 733 l 424 189 l 614 733 l 789 733 l 497 -21 q 399 -180 453 -133 q 256 -226 344 -226 z "},"ф":{"ha":1235,"x_min":68,"x_max":1167,"o":"m 533 -222 l 533 53 q 365 -11 467 -11 q 150 90 232 -11 q 68 367 68 190 q 151 643 68 542 q 367 744 233 744 q 533 671 463 744 l 533 972 l 701 972 l 701 671 q 868 744 772 744 q 1084 642 1001 744 q 1167 365 1167 540 q 1085 89 1167 189 q 869 -11 1003 -11 q 701 53 768 -11 l 701 -222 l 533 -222 m 415 129 q 533 178 478 129 l 533 550 q 415 601 478 601 q 283 538 329 601 q 238 364 238 474 q 283 191 238 253 q 415 129 328 129 m 821 129 q 953 191 908 129 q 997 365 997 253 q 952 538 997 474 q 821 601 907 601 q 701 550 763 601 l 701 178 q 821 129 757 129 z "},"х":{"ha":806,"x_min":42,"x_max":764,"o":"m 42 0 l 311 372 l 51 733 l 235 733 l 404 492 l 574 733 l 753 733 l 493 376 l 764 0 l 581 0 l 400 257 l 221 0 l 42 0 z "},"ц":{"ha":896,"x_min":106,"x_max":861,"o":"m 699 -176 l 699 0 l 106 0 l 106 733 l 272 733 l 272 144 l 589 144 l 589 733 l 756 733 l 756 144 l 861 144 l 839 -176 l 699 -176 z "},"ч":{"ha":825,"x_min":83,"x_max":719,"o":"m 551 0 l 551 274 q 333 218 443 218 q 152 278 221 218 q 83 449 83 339 l 83 733 l 251 733 l 251 489 q 285 399 251 436 q 372 361 318 361 q 551 410 467 361 l 551 733 l 719 733 l 719 0 l 551 0 z "},"ш":{"ha":1256,"x_min":106,"x_max":1150,"o":"m 106 0 l 106 733 l 274 733 l 274 144 l 544 144 l 544 733 l 711 733 l 711 144 l 982 144 l 982 733 l 1150 733 l 1150 0 l 106 0 z "},"щ":{"ha":1289,"x_min":106,"x_max":1254,"o":"m 1093 -176 l 1093 0 l 106 0 l 106 733 l 274 733 l 274 144 l 544 144 l 544 733 l 711 733 l 711 144 l 982 144 l 982 733 l 1150 733 l 1150 144 l 1254 144 l 1233 -176 l 1093 -176 z "},"ъ":{"ha":896,"x_min":24,"x_max":854,"o":"m 226 0 l 226 590 l 24 590 l 24 733 l 393 733 l 393 476 l 563 476 q 774 418 693 476 q 854 244 854 360 q 779 65 854 131 q 574 0 704 0 l 226 0 m 393 136 l 553 136 q 685 244 685 136 q 650 319 685 293 q 550 346 615 346 l 393 346 l 393 136 z "},"ы":{"ha":1104,"x_min":106,"x_max":999,"o":"m 106 0 l 106 733 l 274 733 l 274 476 l 428 476 q 639 418 558 476 q 719 244 719 360 q 644 65 719 131 q 440 0 569 0 l 106 0 m 274 136 l 418 136 q 517 164 482 136 q 551 244 551 192 q 516 319 551 293 q 415 346 481 346 l 274 346 l 274 136 m 831 0 l 831 733 l 999 733 l 999 0 l 831 0 z "},"ь":{"ha":775,"x_min":106,"x_max":733,"o":"m 106 0 l 106 733 l 274 733 l 274 476 l 442 476 q 653 418 572 476 q 733 244 733 360 q 658 65 733 131 q 454 0 583 0 l 106 0 m 274 136 l 432 136 q 531 164 496 136 q 565 244 565 192 q 530 319 565 293 q 429 346 494 346 l 274 346 l 274 136 z "},"э":{"ha":786,"x_min":38,"x_max":721,"o":"m 342 -17 q 38 119 157 -17 l 138 218 q 333 124 229 124 q 475 176 415 124 q 550 307 535 228 l 263 307 l 263 428 l 549 428 q 476 555 533 504 q 340 606 418 606 q 142 519 228 606 l 51 624 q 342 747 169 747 q 613 635 504 747 q 721 364 721 522 q 612 94 721 206 q 342 -17 503 -17 z "},"ю":{"ha":1190,"x_min":106,"x_max":1125,"o":"m 757 -17 q 516 72 613 -17 q 399 297 419 160 l 272 297 l 272 0 l 106 0 l 106 733 l 272 733 l 272 436 l 399 436 q 519 659 421 571 q 760 747 617 747 q 1024 638 922 747 q 1125 365 1125 528 q 1022 94 1125 206 q 757 -17 919 -17 m 760 129 q 906 197 854 129 q 958 365 958 264 q 903 533 958 465 q 757 601 849 601 q 611 535 663 601 q 560 365 560 468 q 614 197 560 265 q 760 129 668 129 z "},"я":{"ha":833,"x_min":39,"x_max":728,"o":"m 39 0 l 242 275 q 117 355 164 299 q 71 494 71 411 q 147 668 71 603 q 360 733 224 733 l 728 733 l 728 0 l 560 0 l 560 247 l 410 247 l 236 0 l 39 0 m 383 374 l 560 374 l 560 597 l 382 597 q 277 567 315 597 q 239 486 239 538 q 278 403 239 433 q 383 374 318 374 z "},"ё":{"ha":839,"x_min":65,"x_max":775,"o":"m 471 826 l 471 990 l 642 990 l 642 826 l 471 826 m 194 826 l 194 990 l 365 990 l 365 826 l 194 826 m 442 -17 q 173 90 281 -17 q 65 367 65 197 q 167 638 65 526 q 424 749 268 749 q 683 635 590 749 q 775 354 775 522 q 772 307 775 324 l 233 307 q 304 170 247 219 q 444 121 361 121 q 643 208 553 121 l 742 121 q 442 -17 628 -17 m 232 418 l 608 418 q 551 557 600 503 q 422 611 503 611 q 294 558 346 611 q 232 418 243 504 z "},"ђ":{"ha":861,"x_min":4,"x_max":767,"o":"m 496 -12 q 350 13 425 -12 l 379 144 q 439 133 406 133 q 554 183 510 133 q 599 315 599 232 l 599 378 q 557 510 599 463 q 440 557 515 557 q 319 508 365 557 q 272 374 272 458 l 272 0 l 104 0 l 104 776 l 4 776 l 4 899 l 104 899 l 104 1014 l 272 1014 l 272 899 l 522 899 l 522 776 l 272 776 l 272 579 q 503 710 364 710 q 697 633 626 710 q 767 428 767 557 l 767 268 q 693 63 767 139 q 496 -12 619 -12 z "},"ѓ":{"ha":653,"x_min":106,"x_max":625,"o":"m 250 826 l 397 1054 l 550 986 l 381 826 l 250 826 m 106 0 l 106 733 l 625 733 l 625 589 l 274 589 l 274 0 l 106 0 z "},"є":{"ha":797,"x_min":65,"x_max":749,"o":"m 444 -17 q 174 94 283 -17 q 65 364 65 206 q 174 635 65 522 q 444 747 282 747 q 735 624 617 747 l 644 519 q 446 606 558 606 q 310 555 368 606 q 236 428 251 504 l 524 428 l 524 307 l 235 307 q 311 175 251 226 q 453 124 371 124 q 649 218 557 124 l 749 119 q 444 -17 629 -17 z "},"ѕ":{"ha":694,"x_min":46,"x_max":629,"o":"m 357 -14 q 46 96 185 -14 l 121 210 q 361 119 240 119 q 445 141 415 119 q 475 201 475 163 q 465 235 475 221 q 428 263 454 250 q 383 281 401 275 q 324 299 365 286 l 311 303 q 245 324 272 314 q 185 353 218 335 q 131 392 151 371 q 96 447 110 414 q 82 522 82 481 q 156 685 82 624 q 343 746 231 746 q 613 663 486 746 l 546 543 q 339 613 432 613 q 263 592 290 613 q 236 536 236 571 q 260 493 236 513 q 309 465 285 474 q 388 438 333 456 q 394 435 390 436 q 401 433 399 433 q 483 403 450 418 q 553 364 517 389 q 610 302 590 339 q 629 217 629 265 q 553 46 629 106 q 357 -14 476 -14 z "},"і":{"ha":397,"x_min":108,"x_max":289,"o":"m 108 846 l 108 1006 l 289 1006 l 289 846 l 108 846 m 115 0 l 115 733 l 283 733 l 283 0 l 115 0 z "},"ї":{"ha":397,"x_min":-24,"x_max":424,"o":"m 253 826 l 253 990 l 424 990 l 424 826 l 253 826 m -24 826 l -24 990 l 147 990 l 147 826 l -24 826 m 115 0 l 115 733 l 283 733 l 283 0 l 115 0 z "},"ј":{"ha":397,"x_min":-11,"x_max":289,"o":"m 108 846 l 108 1006 l 289 1006 l 289 846 l 108 846 m 69 -226 q -11 -219 33 -226 l -11 -85 q 36 -89 14 -89 q 115 0 115 -89 l 115 733 l 283 733 l 283 -10 q 69 -226 283 -226 z "},"љ":{"ha":1261,"x_min":1,"x_max":1219,"o":"m 100 -8 q 1 1 53 -8 l 14 139 q 63 133 36 133 q 122 151 100 133 q 166 226 144 168 q 197 409 188 285 q 206 733 206 533 l 760 733 l 760 476 l 928 476 q 1139 418 1058 476 q 1219 244 1219 360 q 1144 65 1219 131 q 940 0 1069 0 l 592 0 l 592 589 l 363 589 q 350 322 363 432 q 317 149 338 213 q 262 49 297 85 q 190 3 226 14 q 100 -8 154 -8 m 760 136 l 918 136 q 1017 164 982 136 q 1051 244 1051 192 q 1016 319 1051 293 q 915 346 981 346 l 760 346 l 760 136 z "},"њ":{"ha":1265,"x_min":104,"x_max":1224,"o":"m 104 0 l 104 733 l 272 733 l 272 468 l 596 468 l 596 733 l 764 733 l 764 468 l 933 468 q 1144 410 1064 468 q 1224 238 1224 353 q 1149 63 1224 125 q 944 0 1075 0 l 596 0 l 596 336 l 272 336 l 272 0 l 104 0 m 764 136 l 924 136 q 1056 239 1056 136 q 921 338 1056 338 l 764 338 l 764 136 z "},"ћ":{"ha":861,"x_min":4,"x_max":764,"o":"m 104 0 l 104 776 l 4 776 l 4 899 l 104 899 l 104 1014 l 272 1014 l 272 899 l 522 899 l 522 776 l 272 776 l 272 581 q 501 710 360 710 q 694 633 624 710 q 764 428 764 557 l 764 0 l 596 0 l 596 378 q 555 510 596 464 q 439 557 514 557 q 318 508 364 557 q 272 375 272 460 l 272 0 l 104 0 z "},"ќ":{"ha":824,"x_min":106,"x_max":813,"o":"m 335 826 l 482 1054 l 635 986 l 465 826 l 335 826 m 106 0 l 106 733 l 272 733 l 272 382 l 592 733 l 789 733 l 504 425 l 813 0 l 614 0 l 392 303 l 272 176 l 272 0 l 106 0 z "},"ў":{"ha":828,"x_min":36,"x_max":789,"o":"m 567 870 q 539 844 567 870 q 422 818 510 818 q 276 870 335 818 q 204 1011 218 922 l 307 1031 q 422 936 336 936 q 538 1031 508 936 l 639 1011 q 567 870 625 922 m 256 -226 q 82 -182 164 -226 l 139 -57 q 238 -85 190 -85 q 297 -66 274 -85 q 342 0 321 -47 l 36 733 l 215 733 l 424 189 l 614 733 l 789 733 l 497 -21 q 399 -180 453 -133 q 256 -226 344 -226 z "},"џ":{"ha":865,"x_min":106,"x_max":760,"o":"m 356 -176 l 356 0 l 106 0 l 106 733 l 272 733 l 272 144 l 593 144 l 593 733 l 760 733 l 760 0 l 515 0 l 515 -176 l 356 -176 z "},"Ґ":{"ha":825,"x_min":125,"x_max":779,"o":"m 125 0 l 125 972 l 613 972 l 613 1181 l 756 1181 l 779 818 l 294 818 l 294 0 l 125 0 z "},"ґ":{"ha":653,"x_min":106,"x_max":625,"o":"m 106 0 l 106 733 l 464 733 l 464 910 l 604 910 l 625 589 l 274 589 l 274 0 l 106 0 z "},"–":{"ha":733,"x_min":78,"x_max":656,"o":"m 78 346 l 78 506 l 656 506 l 656 346 l 78 346 z "},"—":{"ha":1247,"x_min":78,"x_max":1169,"o":"m 78 346 l 78 506 l 1169 506 l 1169 346 l 78 346 z "},"‘":{"ha":374,"x_min":88,"x_max":319,"o":"m 88 586 l 88 749 q 140 916 88 861 q 301 979 193 971 l 319 907 q 200 793 200 886 q 201 785 200 790 q 201 778 201 781 l 272 778 l 272 586 l 88 586 z "},"’":{"ha":374,"x_min":54,"x_max":286,"o":"m 72 579 l 54 651 q 174 767 174 672 q 173 774 174 769 q 172 782 172 779 l 101 782 l 101 972 l 286 972 l 286 810 q 233 642 286 697 q 72 579 181 588 z "},"‚":{"ha":374,"x_min":47,"x_max":279,"o":"m 65 -201 l 47 -131 q 165 0 175 -106 l 94 0 l 94 190 l 279 190 l 279 29 q 226 -138 279 -83 q 65 -201 174 -193 z "},"“":{"ha":696,"x_min":88,"x_max":642,"o":"m 410 586 l 410 749 q 463 916 410 861 q 624 979 515 971 l 642 907 q 522 790 522 886 l 522 778 l 594 778 l 594 586 l 410 586 m 88 586 l 88 749 q 140 916 88 861 q 301 979 193 971 l 319 907 q 200 793 200 886 q 201 785 200 790 q 201 778 201 781 l 272 778 l 272 586 l 88 586 z "},"”":{"ha":696,"x_min":54,"x_max":608,"o":"m 394 579 l 376 651 q 496 767 496 672 q 495 774 496 769 q 494 782 494 779 l 424 782 l 424 972 l 608 972 l 608 810 q 556 642 608 697 q 394 579 503 588 m 72 579 l 54 651 q 174 767 174 672 q 173 774 174 769 q 172 782 172 779 l 101 782 l 101 972 l 286 972 l 286 810 q 233 642 286 697 q 72 579 181 588 z "},"„":{"ha":696,"x_min":47,"x_max":601,"o":"m 388 -201 l 369 -131 q 489 -15 489 -107 q 488 -8 489 -12 q 488 0 488 -3 l 417 0 l 417 190 l 601 190 l 601 29 q 549 -138 601 -83 q 388 -201 496 -193 m 65 -201 l 47 -131 q 167 -15 167 -107 q 166 -8 167 -12 q 165 0 165 -3 l 94 0 l 94 190 l 279 190 l 279 29 q 226 -138 279 -83 q 65 -201 174 -193 z "},"†":{"ha":569,"x_min":78,"x_max":492,"o":"m 235 331 l 247 713 l 78 700 l 78 799 l 246 786 l 229 972 l 340 972 l 324 786 l 492 799 l 492 700 l 322 713 l 335 331 l 235 331 z "},"‡":{"ha":597,"x_min":92,"x_max":506,"o":"m 243 0 l 260 186 l 92 174 l 92 272 l 260 260 l 249 486 l 260 713 l 92 700 l 92 799 l 260 786 l 243 972 l 354 972 l 338 786 l 506 799 l 506 700 l 338 713 l 349 486 l 338 260 l 506 272 l 506 174 l 338 186 l 354 0 l 243 0 z "},"•":{"ha":682,"x_min":144,"x_max":538,"o":"m 340 293 q 202 350 260 293 q 144 490 144 407 q 203 628 144 571 q 340 685 261 685 q 479 627 421 685 q 538 488 538 569 q 480 350 538 407 q 340 293 422 293 z "},"…":{"ha":1100,"x_min":94,"x_max":1006,"o":"m 825 0 l 825 186 l 1006 186 l 1006 0 l 825 0 m 460 0 l 460 186 l 640 186 l 640 0 l 460 0 m 94 0 l 94 186 l 275 186 l 275 0 l 94 0 z "},"‰":{"ha":1706,"x_min":67,"x_max":1639,"o":"m 294 486 q 131 558 194 486 q 67 735 67 631 q 131 910 67 838 q 297 983 196 983 q 461 911 397 983 q 525 735 525 839 q 460 559 525 632 q 294 486 396 486 m 165 0 l 876 972 l 1014 972 l 303 0 l 165 0 m 1574 62 q 1542 25 1574 62 q 1408 -11 1510 -11 q 1244 61 1307 -11 q 1181 238 1181 133 q 1245 414 1181 342 q 1411 486 1310 486 q 1575 414 1511 486 q 1639 238 1639 342 q 1574 62 1639 135 m 882 -11 q 718 61 782 -11 q 654 238 654 133 q 719 413 654 340 q 885 486 783 486 q 1049 414 985 486 q 1113 238 1113 342 q 1048 62 1113 135 q 882 -11 983 -11 m 297 593 q 373 634 344 593 q 401 735 401 675 q 371 835 401 794 q 294 876 340 876 q 219 835 247 876 q 190 735 190 794 q 221 634 190 675 q 297 593 251 593 m 1411 96 q 1487 137 1458 96 q 1515 238 1515 178 q 1485 338 1515 297 q 1408 379 1454 379 q 1333 338 1361 379 q 1304 238 1304 297 q 1335 137 1304 178 q 1411 96 1365 96 m 885 96 q 960 137 932 96 q 989 238 989 178 q 958 338 989 297 q 882 379 928 379 q 806 338 835 379 q 778 238 778 297 q 808 137 778 178 q 885 96 839 96 z "},"‹":{"ha":492,"x_min":61,"x_max":419,"o":"m 292 57 l 61 361 l 61 372 l 292 678 l 419 613 l 236 368 l 419 122 l 292 57 z "},"›":{"ha":492,"x_min":74,"x_max":431,"o":"m 201 57 l 74 121 l 257 365 l 74 611 l 201 678 l 431 372 l 431 361 l 201 57 z "},"⁄":{"ha":638,"x_min":-97,"x_max":704,"o":"m -97 -136 l 551 1053 l 704 1053 l 56 -136 l -97 -136 z "},"€":{"ha":1000,"x_min":72,"x_max":939,"o":"m 603 -17 q 345 73 451 -17 q 199 313 239 163 l 72 313 l 72 431 l 179 431 q 178 486 178 449 q 181 549 178 529 l 72 549 l 72 667 l 203 667 q 350 900 246 811 q 597 989 454 989 q 795 941 715 989 q 936 806 875 893 l 807 710 q 711 806 760 775 q 593 836 663 836 q 465 791 521 836 q 379 667 408 746 l 678 667 l 678 549 l 353 549 q 350 486 350 513 q 353 431 350 467 l 678 431 l 678 313 l 378 313 q 465 183 407 231 q 604 136 524 136 q 717 168 669 136 q 817 268 764 200 l 939 179 q 794 34 874 85 q 603 -17 714 -17 z "},"№":{"ha":1460,"x_min":108,"x_max":1383,"o":"m 108 0 l 108 972 l 271 972 l 707 306 l 707 972 l 881 972 l 881 0 l 732 0 l 282 683 l 282 0 l 108 0 m 997 194 l 997 300 l 1360 300 l 1360 194 l 997 194 m 1325 442 q 1296 412 1325 442 q 1179 382 1267 382 q 1034 441 1092 382 q 976 586 976 500 q 1035 732 976 672 q 1181 792 1093 792 q 1326 733 1268 792 q 1383 588 1383 674 q 1325 442 1383 501 m 1110 508 q 1124 491 1110 508 q 1181 475 1138 475 q 1250 507 1224 475 q 1276 586 1276 539 q 1249 665 1276 633 q 1179 697 1221 697 q 1108 665 1135 697 q 1082 586 1082 633 q 1110 508 1082 540 z "},"℗":{"ha":1153,"x_min":74,"x_max":1079,"o":"m 932 131 q 858 57 932 131 q 575 -17 785 -17 q 219 131 365 -17 q 74 486 74 278 q 221 841 74 693 q 578 989 368 989 q 933 842 788 989 q 1079 486 1079 694 q 932 131 1079 279 m 575 33 q 897 166 767 33 q 1026 489 1026 299 q 897 808 1026 676 q 578 939 768 939 q 256 806 386 939 q 126 483 126 674 q 256 165 126 296 q 575 33 385 33 m 397 232 l 397 760 l 610 760 q 759 711 704 760 q 814 579 814 663 q 752 446 814 493 q 599 399 690 399 l 500 399 l 500 232 l 397 232 m 500 489 l 601 489 q 681 514 651 489 q 710 581 710 539 q 681 645 710 622 q 601 668 653 668 l 500 668 l 500 489 z "},"™":{"ha":958,"x_min":36,"x_max":904,"o":"m 474 544 l 474 972 l 561 972 l 690 769 l 819 972 l 904 972 l 904 544 l 825 544 l 825 849 l 693 643 l 685 643 l 553 849 l 553 544 l 474 544 m 168 544 l 168 897 l 36 897 l 36 972 l 382 972 l 382 897 l 250 897 l 250 544 l 168 544 z "},"∂":{"ha":694,"x_min":0,"x_max":694,"o":"m 0 0 l 0 972 l 694 972 l 694 0 l 0 0 m 113 68 l 583 68 l 347 422 l 113 68 m 68 133 l 306 486 l 68 839 l 68 133 m 625 133 l 625 839 l 388 486 l 625 133 m 347 549 l 583 903 l 113 903 l 347 549 z "},"∆":{"ha":917,"x_min":39,"x_max":1028,"o":"m 39 0 l 453 974 l 613 974 l 1028 0 l 39 0 m 286 151 l 782 151 l 535 757 l 286 151 z "},"∏":{"ha":694,"x_min":0,"x_max":694,"o":"m 0 0 l 0 972 l 694 972 l 694 0 l 0 0 m 113 68 l 583 68 l 347 422 l 113 68 m 68 133 l 306 486 l 68 839 l 68 133 m 625 133 l 625 839 l 388 486 l 625 133 m 347 549 l 583 903 l 113 903 l 347 549 z "},"∑":{"ha":694,"x_min":0,"x_max":694,"o":"m 0 0 l 0 972 l 694 972 l 694 0 l 0 0 m 113 68 l 583 68 l 347 422 l 113 68 m 68 133 l 306 486 l 68 839 l 68 133 m 625 133 l 625 839 l 388 486 l 625 133 m 347 549 l 583 903 l 113 903 l 347 549 z "},"−":{"ha":889,"x_min":118,"x_max":769,"o":"m 118 411 l 118 567 l 769 567 l 769 411 l 118 411 z "},"√":{"ha":782,"x_min":-24,"x_max":835,"o":"m 351 -217 l 104 272 l -14 263 l -24 374 l 172 394 l 351 36 l 706 1101 l 835 1101 l 385 -217 l 351 -217 z "},"∞":{"ha":1136,"x_min":60,"x_max":1076,"o":"m 303 235 q 126 308 193 235 q 60 492 60 381 q 125 674 60 601 q 299 746 190 746 q 440 703 381 746 q 568 581 500 661 q 646 665 618 638 q 726 719 674 692 q 836 746 778 746 q 1011 674 946 746 q 1076 492 1076 603 q 1012 308 1076 381 q 836 235 947 235 q 568 392 706 235 q 491 313 521 340 q 410 260 461 285 q 303 235 358 235 m 303 374 q 485 489 386 374 q 300 608 375 608 q 222 574 251 608 q 193 490 193 539 q 222 406 193 439 q 303 374 251 374 m 838 374 q 916 407 888 374 q 944 490 944 440 q 915 575 944 542 q 833 608 885 608 q 651 489 751 608 q 838 374 754 374 z "},"∫":{"ha":694,"x_min":0,"x_max":694,"o":"m 0 0 l 0 972 l 694 972 l 694 0 l 0 0 m 113 68 l 583 68 l 347 422 l 113 68 m 68 133 l 306 486 l 68 839 l 68 133 m 625 133 l 625 839 l 388 486 l 625 133 m 347 549 l 583 903 l 113 903 l 347 549 z "},"≈":{"ha":889,"x_min":92,"x_max":800,"o":"m 182 522 l 92 542 q 282 750 132 750 q 451 713 332 750 q 601 676 569 676 q 708 758 683 676 l 800 739 q 608 532 760 532 q 438 569 558 532 q 288 606 318 606 q 222 583 250 606 q 182 522 193 560 m 182 214 l 92 233 q 282 440 132 440 q 451 404 332 440 q 601 368 569 368 q 708 450 683 368 l 800 429 q 608 224 760 224 q 438 260 558 224 q 288 296 318 296 q 222 274 250 296 q 182 214 193 251 z "},"≠":{"ha":889,"x_min":115,"x_max":771,"o":"m 256 82 l 143 100 l 228 240 l 115 240 l 115 393 l 322 393 l 436 583 l 115 583 l 115 736 l 529 736 l 624 894 l 736 876 l 651 736 l 771 736 l 771 583 l 557 583 l 443 393 l 771 393 l 771 240 l 350 240 l 256 82 z "},"≤":{"ha":889,"x_min":106,"x_max":785,"o":"m 106 13 l 106 158 l 785 158 l 785 13 l 106 13 m 785 210 l 106 454 l 106 613 l 785 857 l 785 693 l 272 533 l 785 374 l 785 210 z "},"≥":{"ha":889,"x_min":106,"x_max":785,"o":"m 106 13 l 106 158 l 785 158 l 785 13 l 106 13 m 107 210 l 107 374 l 618 533 l 107 693 l 107 857 l 785 613 l 785 454 l 107 210 z "},"◊":{"ha":889,"x_min":118,"x_max":769,"o":"m 371 -49 l 118 494 l 371 1038 l 514 1038 l 769 494 l 514 -49 l 371 -49 m 444 108 l 610 494 q 444 878 499 750 l 278 494 l 444 108 z "},"":{"ha":694,"x_min":126,"x_max":564,"o":"m 492 874 q 463 848 492 874 q 346 822 433 822 q 200 874 258 822 q 126 1017 142 926 l 231 1036 q 346 942 257 942 q 461 1036 432 942 l 564 1017 q 492 874 550 926 z "},"":{"ha":694,"x_min":128,"x_max":563,"o":"m 491 870 q 462 844 491 870 q 346 818 433 818 q 200 870 258 818 q 128 1011 142 922 l 231 1031 q 346 936 260 936 q 461 1031 432 936 l 563 1011 q 491 870 549 922 z "},"":{"ha":694,"x_min":0,"x_max":694,"o":"m 0 0 l 0 972 l 694 972 l 694 0 l 0 0 m 113 68 l 583 68 l 347 422 l 113 68 m 68 133 l 306 486 l 68 839 l 68 133 m 625 133 l 625 839 l 388 486 l 625 133 m 347 549 l 583 903 l 113 903 l 347 549 z "},"ﬀ":{"ha":1044,"x_min":50,"x_max":1026,"o":"m 665 0 l 665 589 l 572 589 l 572 729 l 665 729 l 665 782 q 725 964 665 904 q 889 1022 783 1022 q 1026 1003 961 1022 l 1026 861 q 928 879 972 879 q 831 768 831 879 l 831 728 l 1025 728 l 1025 589 l 833 589 l 833 0 l 665 0 m 143 0 l 143 589 l 50 589 l 50 729 l 143 729 l 143 782 q 203 964 143 904 q 368 1022 261 1022 q 504 1003 439 1022 l 504 861 q 406 879 450 879 q 308 768 308 879 l 308 728 l 503 728 l 503 589 l 311 589 l 311 0 l 143 0 z "},"ﬁ":{"ha":919,"x_min":50,"x_max":811,"o":"m 631 846 l 631 1006 l 811 1006 l 811 846 l 631 846 m 143 0 l 143 589 l 50 589 l 50 729 l 143 729 l 143 782 q 203 964 143 904 q 368 1022 261 1022 q 504 1003 439 1022 l 504 861 q 406 879 450 879 q 308 768 308 879 l 308 728 l 503 728 l 503 589 l 311 589 l 311 0 l 143 0 m 638 0 l 638 733 l 806 733 l 806 0 l 638 0 z "},"ﬂ":{"ha":919,"x_min":50,"x_max":806,"o":"m 143 0 l 143 589 l 50 589 l 50 729 l 143 729 l 143 782 q 203 964 143 904 q 368 1022 261 1022 q 504 1003 439 1022 l 504 861 q 406 879 450 879 q 308 768 308 879 l 308 728 l 503 728 l 503 589 l 311 589 l 311 0 l 143 0 m 638 0 l 638 1014 l 806 1014 l 806 0 l 638 0 z "},"ﬃ":{"ha":1442,"x_min":50,"x_max":1333,"o":"m 1153 846 l 1153 1006 l 1333 1006 l 1333 846 l 1153 846 m 665 0 l 665 589 l 572 589 l 572 729 l 665 729 l 665 782 q 725 964 665 904 q 889 1022 783 1022 q 1026 1003 961 1022 l 1026 861 q 928 879 972 879 q 831 768 831 879 l 831 728 l 1025 728 l 1025 589 l 833 589 l 833 0 l 665 0 m 143 0 l 143 589 l 50 589 l 50 729 l 143 729 l 143 782 q 203 964 143 904 q 368 1022 261 1022 q 504 1003 439 1022 l 504 861 q 406 879 450 879 q 308 768 308 879 l 308 728 l 503 728 l 503 589 l 311 589 l 311 0 l 143 0 m 1158 0 l 1158 733 l 1328 733 l 1328 0 l 1158 0 z "},"ﬄ":{"ha":1442,"x_min":50,"x_max":1328,"o":"m 665 0 l 665 589 l 572 589 l 572 729 l 665 729 l 665 782 q 725 964 665 904 q 889 1022 783 1022 q 1026 1003 961 1022 l 1026 861 q 928 879 972 879 q 831 768 831 879 l 831 728 l 1025 728 l 1025 589 l 833 589 l 833 0 l 665 0 m 143 0 l 143 589 l 50 589 l 50 729 l 143 729 l 143 782 q 203 964 143 904 q 368 1022 261 1022 q 504 1003 439 1022 l 504 861 q 406 879 450 879 q 308 768 308 879 l 308 728 l 503 728 l 503 589 l 311 589 l 311 0 l 143 0 m 1158 0 l 1158 1014 l 1328 1014 l 1328 0 l 1158 0 z "}}}
